<?xml version="1.0" standalone="no"?>
<!DOCTYPE svg PUBLIC "-//W3C//DTD SVG 1.1//EN" "http://www.w3.org/Graphics/SVG/1.1/DTD/svg11.dtd" >
<svg xmlns="http://www.w3.org/2000/svg">
<metadata>
This is a custom SVG font generated by IcoMoon.
<iconset grid="20"></iconset>
</metadata>
<defs>
<font id="hp-icon-font-v4" horiz-adv-x="640" >
<font-face units-per-em="640" ascent="608" descent="-32" />
<missing-glyph horiz-adv-x="640" />
<glyph class="hidden" unicode="&#xf000;" d="M0,608L 640 -32L0 -32 z" horiz-adv-x="0" />
<glyph unicode="&#xe000;" d="M 592,64l-135.040,135.008C 481.44,233.152, 496,274.816, 496,320c0,114.88-93.12,208-208,208S 80,434.88, 80,320c0-114.848, 93.12-208, 208-208
	c 45.184,0, 86.88,14.56, 120.96,39.008L 544,16L 592,64z M 128,320c0,88.384, 71.616,160, 160,160s 160-71.616, 160-160c0-88.352-71.616-160-160-160S 128,231.648, 128,320z
	 M 400,351.488l-224,0 l0-64 l 224,0 L 400,351.488 z"  />
<glyph unicode="&#xe001;" d="M 592,64l-135.040,135.008C 481.44,233.152, 496,274.816, 496,320c0,114.88-93.12,208-208,208S 80,434.88, 80,320c0-114.848, 93.12-208, 208-208
	c 45.184,0, 86.88,14.56, 120.96,39.008L 544,16L 592,64z M 128,320c0,88.384, 71.616,160, 160,160s 160-71.616, 160-160c0-88.352-71.616-160-160-160S 128,231.648, 128,320z
	 M 400,351.488L 320,351.488 l0,80 L 256,431.488 l0-80 L 176,351.488 l0-64 L 256,287.488 l0-78.976 l 64,0 l0,78.976 l 80,0 L 400,351.488 z"  />
<glyph unicode="&#xe002;" d="M 174.528,512l 29.856,0 l 19.264-75.872l 1.856,0 L 243.84,512l 30.112,0 L 239.456,400.96l0-80.768 L 209.792,320.192 L 209.792,397.376 L 174.528,512z M 272.608,430.208
	c0,10.848, 3.52,19.488, 10.624,25.888C 290.336,462.56, 299.84,465.76, 311.808,465.76c 10.912,0, 19.84-3.392, 26.784-10.176
	c 7.008-6.784, 10.432-15.52, 10.432-26.176l0-74.496 c0-12-3.36-21.408-10.208-28.224c-6.816-6.848-16.224-10.24-28.192-10.24
	c-11.52,0-20.704,3.52-27.648,10.56c-6.88,7.040-10.336,16.512-10.336,28.416L 272.64,430.208 z M 299.68,352.8c0-3.872, 0.96-6.848, 2.816-8.928
	c 1.856-2.112, 4.544-3.136, 8-3.136c 3.584,0, 6.4,1.056, 8.512,3.2s 3.136,5.088, 3.136,8.864L 322.144,431.232 c0,3.072-1.056,5.536-3.2,7.424
	C 316.832,440.512, 314.016,441.472, 310.528,441.472c-3.232,0-5.824-0.96-7.84-2.816C 300.704,436.768, 299.68,434.304, 299.68,431.232L 299.68,352.8 z M 446.528,462.208L 446.528,320 
	l-26.336,0 L 420.192,335.456 c-4.832-5.728-9.888-10.048-15.136-13.024c-5.216-2.976-10.336-4.48-15.296-4.48c-6.048,0-10.688,2.112-13.792,6.272
	c-3.104,4.16-4.64,10.432-4.64,18.752L 371.328,462.208 l 26.336,0 l0-109.504 c0-3.328, 0.576-5.728, 1.664-7.2c 1.088-1.472, 2.88-2.24, 5.344-2.24
	c 1.952,0, 4.416,0.992, 7.36,2.976c 2.944,1.952, 5.632,4.448, 8.096,7.52L 420.128,462.208 L 446.528,462.208 z M 363.712,197.696
	c 1.536-1.984, 2.272-4.896, 2.272-8.704l0-58.528 c0-3.616-0.64-6.208-1.888-7.808c-1.216-1.6-3.168-2.368-5.76-2.368
	c-1.824,0-3.52,0.416-5.152,1.216c-1.632,0.768-3.328,2.112-5.024,3.968l0,70.656 c 1.408,1.568, 2.912,2.72, 4.384,3.424
	c 1.504,0.768, 3.008,1.152, 4.544,1.152C 359.968,200.704, 362.176,199.68, 363.712,197.696z M 435.584,200.256c-3.392,0-5.824-0.992-7.328-3.104
	c-1.472-2.016-2.208-5.44-2.208-10.176l0-11.488 l 18.88,0 l0,11.488 c0,4.736-0.736,8.16-2.24,10.176C 441.216,199.264, 438.848,200.256, 435.584,200.256
	z M 496,178.528c 0.064-21.696-0.672-43.328-2.336-65.056c0-27.392-22.784-49.6-50.848-49.6c-40.032-1.664-80.992-2.368-122.784-2.304
	c-41.824-0.064-82.784,0.672-122.848,2.304c-28.032,0-50.816,22.176-50.816,49.6c-1.696,21.728-2.432,43.36-2.368,65.056
	c-0.064,21.696, 0.672,43.392, 2.368,65.056c0,27.36, 22.784,49.6, 50.816,49.6c 40.032,1.632, 81.024,2.368, 122.848,2.304
	c 41.792,0.064, 82.752-0.672, 122.784-2.304c 28.064,0, 50.848-22.24, 50.848-49.6C 495.328,221.92, 496.064,200.192, 496,178.528z M 220.224,235.296
	l 24.864,0 l0,22.272 L 171.296,257.568 l0-22.272 L 196.16,235.296 l0-131.424 l 24.032,0 L 220.192,235.296 z M 305.76,217.28L 284.416,217.28 L 284.416,131.2 c-2.016-2.496-4.224-4.544-6.624-6.112
	c-2.4-1.6-4.384-2.368-5.952-2.368c-2.016,0-3.456,0.64-4.352,1.824c-0.896,1.184-1.344,3.136-1.344,5.824L 266.144,217.28 L 244.8,217.28 l0-94.784 
	c0-6.752, 1.248-11.808, 3.744-15.2c 2.528-3.36, 6.24-5.056, 11.168-5.056c 4,0, 8.128,1.184, 12.384,3.616
	c 4.256,2.4, 8.352,5.92, 12.288,10.528l0-12.544 l 21.344,0 L 305.728,217.28 z M 388,190.272c0,9.248-1.824,16.32-5.376,21.184
	c-3.552,4.8-8.704,7.264-15.488,7.264c-3.296,0-6.528-0.896-9.792-2.72s-6.272-4.448-9.152-7.872l0,49.44 l-21.6,0 l0-153.696 l 21.6,0 l0,8.736 
	c 2.784-3.456, 5.856-6.016, 9.088-7.68c 3.296-1.632, 6.976-2.496, 11.168-2.496c 6.336,0, 11.168,2.144, 14.496,6.4
	c 3.328,4.32, 5.056,10.496, 5.056,18.528L 388,190.272 z M 466.88,186.752c0,10.784-2.592,19.040-7.84,24.736c-5.248,5.76-12.736,8.608-22.496,8.608
	c-9.568,0-17.376-3.104-23.392-9.28s-9.056-14.176-9.056-24.064l0-50.88 c0-10.944, 2.752-19.488, 8.288-25.76
	c 5.472-6.208, 12.992-9.344, 22.56-9.344c 10.624,0, 18.624,2.944, 23.968,8.832c 5.344,5.856, 8,14.624, 8,26.24l0,8.512 l-21.952,0 l0-7.872 
	c0-6.656-0.704-10.976-2.144-12.928c-1.376-1.952-3.84-2.912-7.392-2.912c-3.392,0-5.792,1.152-7.232,3.424
	c-1.376,2.304-2.080,6.432-2.080,12.416l0,21.408 l 40.8,0 L 466.912,186.752 z"  />
<glyph unicode="&#xe003;" d="M 576,299.392L 576,544L 291.040,503.008L 291.040,299.392 	zM 270.944,500.096L 64,470.336L 64,299.392L 270.944,299.392 	zM 64,279.616L 64,106.496L 270.944,76.352L 270.944,279.616 	zM 291.040,73.44L 576,32L 576,279.616L 291.040,279.616 	z"  />
<glyph unicode="&#xe004;" d="M 458.912,206.208c-35.68,35.36-84.768,57.312-138.912,57.312s-103.232-21.952-138.912-57.312c-0.384-0.384-0.736-0.736-1.12-1.12
	L 224.992,160c 0.352,0.384, 0.736,0.8, 1.12,1.12c 24.16,23.936, 57.344,38.688, 93.888,38.688s 69.76-14.752, 93.92-38.688
	c 0.384-0.32, 0.736-0.736, 1.12-1.12l 44.992,45.056C 459.648,205.44, 459.296,205.824, 458.912,206.208zM 548.864,289.376C 490.144,347.84, 409.216,384.032, 320,384.032S 149.856,347.84, 91.104,289.376C 90.72,288.992, 90.368,288.64, 89.984,288.256l 44.992-44.992
	c 0.384,0.384, 0.736,0.736, 1.152,1.12C 183.328,291.328, 248.32,320.384, 320,320.384c 71.68,0, 136.672-29.056, 183.872-76
	c 0.416-0.384, 0.768-0.736, 1.152-1.12l 44.96,44.992C 549.632,288.64, 549.248,288.992, 548.864,289.376zM 638.88,380C 557.056,461.536, 444.32,512, 320,512C 195.68,512, 82.912,461.536, 1.12,380C 0.736,379.648, 0.384,379.264,0,378.88l 44.992-44.96
	C 45.376,334.304, 45.728,334.656, 46.112,335.040C 116.384,405.024, 213.216,448.352, 320,448.352s 203.616-43.328, 273.888-113.312
	c 0.384-0.416, 0.736-0.736, 1.12-1.152L 640,378.88C 639.616,379.264, 639.264,379.648, 638.88,380zM 272.384,80A48,48 180 1 1 368.384,80A48,48 180 1 1 272.384,80z"  />
<glyph unicode="&#xe005;" d="M 608,384L 608,448 L 64,544l0-64 l 86.784-15.328L 64,320c0-46.4, 32.928-85.088, 76.672-94.048C 146.912,224.672, 153.376,224, 160,224s 13.088,0.672, 19.328,1.952
	C 223.104,234.912, 256,273.6, 256,320L 171.36,461.056L 288,440.48L 288,96 L 192,96 l0-64 l 96,0 l 64,0 l 96,0 l0,64 l-96,0 L 352,429.184 l 123.168-21.728L 384.032,256L 384,256 L 384,256 l0,0
	c0-46.4, 32.928-85.056, 76.672-94.016C 466.912,160.672, 473.376,160, 480,160c 10.944,0, 21.28,2.208, 31.104,5.6
	c 2.048,0.704, 4.288,1.088, 6.272,1.952c 2.272,0.96, 4.32,2.4, 6.496,3.52c 3.328,1.728, 6.72,3.264, 9.824,5.312
	c 1.024,0.704, 1.856,1.664, 2.848,2.368C 560.352,196.224, 576,224.16, 576,256l0,0L 576,256 l-0.032,0 l-89.984,149.504L 608,384z M 101.312,320L 160,417.824L 218.688,320
	L 101.312,320 z M 421.376,256L 480,353.44L 538.624,256L 421.376,256 z"  />
<glyph unicode="&#xe006;" d="M 320,544c-141.376,0-256-114.624-256-256s 114.624-256, 256-256c 141.376,0, 256,114.592, 256,256S 461.376,544, 320,544z M 112.8,272l 64.032,0 
	c 1.344-22.688, 5.088-44.16, 11.072-64L 128.032,208 C 119.712,227.968, 114.528,249.504, 112.8,272z M 336,400L 336,486.656 c 19.744-17.792, 47.328-47.040, 67.936-86.656
	L 336,400 z M 417.76,368c 7.008-19.488, 11.808-40.864, 13.408-64L 336,304 l0,64 L 417.76,368 z M 304,486.528L 304,400 L 236.224,400 C 256.8,439.456, 284.288,468.704, 304,486.528z
	 M 304,368l0-64 L 208.864,304 c 1.6,23.136, 6.464,44.48, 13.504,64L 304,368 z M 176.832,304L 112.8,304 c 1.728,22.496, 6.88,44.032, 15.232,64l 60.064,0 
	C 182.016,348.352, 178.208,326.88, 176.832,304z M 208.864,272L 304,272 l0-64 L 221.984,208 C 215.136,227.712, 210.432,249.088, 208.864,272z M 304,176l0-92.928 
	c-20.16,19.488-48.16,51.2-68.768,92.928L 304,176 z M 336,83.136L 336,176 l 68.704,0 C 384.096,134.336, 356.128,102.656, 336,83.136z M 336,208l0,64 l 95.168,0 
	c-1.568-22.848-6.272-44.256-13.152-64L 336,208 z M 463.2,272l 64,0 c-1.728-22.496-6.88-44.032-15.264-64l-59.808,0 
	C 458.080,227.84, 461.856,249.312, 463.2,272z M 463.2,304c-1.376,22.88-5.184,44.352-11.296,64l 60.032,0 c 8.384-19.968, 13.536-41.504, 15.264-64
	L 463.2,304 z M 495.008,400l-55.424,0 c-16.16,35.904-37.824,64.96-57.856,86.656C 428.896,471.968, 468.8,440.768, 495.008,400z M 258.336,486.656
	C 238.272,464.96, 216.64,435.936, 200.48,400L 144.992,400 C 171.2,440.8, 211.104,472, 258.336,486.656z M 144.992,176l 54.848,0 c 14.592-33.824, 33.824-62.24, 52.352-84.448
	C 207.68,106.944, 170.048,137.024, 144.992,176z M 387.84,91.584c 18.496,22.208, 37.728,50.656, 52.352,84.448l 54.816,0 
	C 469.984,137.024, 432.32,107.008, 387.84,91.584z"  />
<glyph unicode="&#xe007;" d="M 512,288c0,59.776-27.328,113.152-70.144,148.352c 2.208,2.784, 3.008,6.688, 1.76,11.008L 420.416,528.64C 417.984,537.088, 408.8,544, 400,544l-160,0 
	C 231.2,544, 222.016,537.088, 219.616,528.64L 196.384,447.392C 195.168,443.072, 195.968,439.2, 198.176,436.384C 155.328,401.184, 128,347.776, 128,288
	c0-59.776, 27.328-113.184, 70.176-148.384c-2.208-2.816-3.008-6.688-1.792-11.008l 23.232-81.248C 222.016,38.944, 231.2,32, 240,32l 160,0 
	c 8.8,0, 17.984,6.944, 20.416,15.36l 23.2,81.248c 1.248,4.32, 0.48,8.192-1.76,11.008C 484.672,174.816, 512,228.224, 512,288z M 176,288
	c0,79.488, 64.512,144, 144,144s 144-64.48, 144-144c0-79.52-64.512-144-144-144S 176,208.48, 176,288z M 128,312L 128,288 l0-24 
	C 128,259.616, 124.416,256, 120,256l-16,0 C 99.584,256, 96,259.616, 96,264l0,48 C 96,316.416, 99.584,320, 104,320l 16,0 C 124.416,320, 128,316.416, 128,312z M 432,288
	c0-8.832-7.168-16-16-16l-68.896,0 C 341.536,262.624, 331.712,256, 320,256c-17.664,0-32,14.336-32,32c0,11.712, 6.624,21.504, 16,27.104L 304,384 
	c0,8.832, 7.168,16, 16,16s 16-7.168, 16-16l0-68.896 c 4.64-2.72, 8.384-6.464, 11.104-11.104L 416,304 C 424.832,304, 432,296.864, 432,288z
	 M 336,288c0,8.832-7.168,16-16,16S 304,296.864, 304,288s 7.168-16, 16-16S 336,279.168, 336,288z"  />
<glyph unicode="&#xe008;" d="M 512,416l0-32 c 17.664,0, 32-14.368, 32-32l0-192 c0-35.296-28.704-64-64-64L 128,96 c-17.632,0-32,14.336-32,32c0,17.696, 14.336,32, 32,32l 288,0 c 35.2,0, 64,28.8, 64,64L 480,448 
	c0,35.2-28.8,64-64,64L 128,512 c-35.2,0-64-28.8-64-64l0-320 c0-35.2, 28.8-64, 64-64l 352,0 c 52.8,0, 96,43.2, 96,96L 576,352 C 576,387.232, 547.2,416, 512,416z M 384,368c 17.696,0, 32-14.304, 32-32
	s-14.304-32-32-32s-32,14.304-32,32S 366.304,368, 384,368z"  />
<glyph unicode="&#xe009;" d="M 320,544C 249.376,544, 185.44,515.392, 139.136,469.152C 139.072,469.12, 139.040,469.088, 138.976,469.056S 138.912,468.928, 138.848,468.896
	C 92.608,422.592, 64,358.656, 64,288c0-141.408, 114.624-256, 256-256c 141.408,0, 256,114.592, 256,256C 576,429.376, 461.408,544, 320,544z M 477.92,129.344
	c-7.968-7.712-20.128-11.744-36.32-11.744c-26.592,0-58.624,10.24-91.872,28.352c 8.896,6.4, 17.76,13.28, 26.528,20.608
	C 383.296,162.528, 391.328,160, 400,160c 26.496,0, 48,21.504, 48,48c0,8.64-2.464,16.608-6.432,23.584c 7.232,8.672, 14.016,17.408, 20.384,26.176
	c 30.688-56.96, 36.896-106.88, 16.704-127.712C 478.4,129.824, 478.144,129.568, 477.92,129.344z M 162.112,129.344c-0.256,0.256-0.544,0.512-0.8,0.768
	c-20.128,20.832-13.92,70.752, 16.768,127.712c 6.336-8.768, 13.152-17.472, 20.384-26.176C 194.464,224.64, 192,216.64, 192,208C 192,181.472, 213.504,160, 240,160
	c 8.704,0, 16.736,2.496, 23.776,6.528c 8.8-7.328, 17.632-14.176, 26.528-20.608c-33.248-18.048-65.312-28.32-91.904-28.32
	C 182.24,117.6, 170.112,121.6, 162.112,129.344z M 284.672,190.752C 286.752,196.128, 288,201.888, 288,208C 288,234.56, 266.496,256, 240,256
	c-6.144,0-11.968-1.248-17.344-3.36c-9.792,11.84-18.656,23.648-26.528,35.392C 203.968,299.744, 212.8,311.584, 222.592,323.36
	C 228,321.28, 233.856,320, 240,320C 266.496,320, 288,341.504, 288,368c0,6.112-1.248,11.904-3.328,17.28C 296.32,394.944, 308.128,403.872, 320,411.872
	c 11.872-8, 23.68-16.896, 35.328-26.592C 353.248,379.904, 352,374.112, 352,368C 352,341.504, 373.504,320, 400,320c 6.144,0, 12,1.28, 17.408,3.36
	C 427.2,311.584, 436.032,299.744, 443.872,288c-7.84-11.744-16.704-23.584-26.496-35.36C 411.968,254.72, 406.112,256, 400,256
	C 373.472,256, 352,234.528, 352,208c0-6.080, 1.248-11.872, 3.328-17.248c-11.616-9.696-23.424-18.592-35.328-26.56
	C 308.128,172.16, 296.352,181.12, 284.672,190.752z M 161.344,445.952c 0.256,0.256, 0.512,0.512, 0.768,0.768C 170.080,454.432, 182.24,458.464, 198.4,458.464
	c 26.592,0, 58.656-10.24, 91.872-28.32c-8.896-6.4-17.76-13.312-26.56-20.64C 256.672,413.504, 248.672,416, 240,416C 213.472,416, 192,394.496, 192,368
	c0-8.64, 2.464-16.608, 6.432-23.584C 191.232,335.744, 184.384,327.008, 178.080,318.272C 147.392,375.2, 141.184,425.12, 161.344,445.952z M 477.92,446.688
	c 0.256-0.224, 0.512-0.48, 0.736-0.704c 20.192-20.832, 13.984-70.752-16.704-127.744c-6.336,8.768-13.152,17.504-20.384,26.176
	C 445.536,351.392, 448,359.36, 448,368C 448,394.528, 426.496,416, 400,416c-8.672,0-16.704-2.496-23.712-6.528c-8.8,7.328-17.664,14.24-26.56,20.64
	c 33.216,18.080, 65.28,28.32, 91.872,28.32C 457.792,458.464, 469.952,454.432, 477.92,446.688z M 481.792,288c 20.8,34.752, 34.24,68.896, 38.848,99.040
	C 535.424,357.152, 544,323.584, 544,288c0-35.552-8.576-69.12-23.36-99.040C 516.032,219.104, 502.592,253.28, 481.792,288z M 419.072,488.608
	C 388.928,484.032, 354.752,470.496, 320,449.664C 285.216,470.496, 251.040,484.032, 220.928,488.608C 250.848,503.456, 284.416,512, 320,512S 389.152,503.456, 419.072,488.608z
	 M 119.392,387.072c 4.576-30.112, 18.016-64.256, 38.848-99.040c-20.832-34.752-34.272-68.928-38.848-99.040C 104.576,218.88, 96,252.448, 96,288
	C 96,323.616, 104.576,357.152, 119.392,387.072z M 220.864,87.456c 30.144,4.576, 64.352,18.080, 99.168,38.944c 34.752-20.832, 68.896-34.368, 99.040-38.976
	C 389.152,72.576, 355.584,64, 320,64C 284.384,64, 250.816,72.576, 220.864,87.456z"  />
<glyph unicode="&#xe00a;" d="M 320,496c 130.464,0, 242.56-161.6, 272-208c-29.376-46.432-141.248-208-272-208c-130.464,0-242.56,161.568-272,208.032
		C 77.376,334.464, 189.216,496, 320,496 M 320,544C 140.736,544,0,288,0,288s 140.736-256, 320-256c 179.232,0, 320,256, 320,256S 499.232,544, 320,544L 320,544z M 455.616,344.384
		c 7.2-17.088, 8-37.248, 8-56.928c0-79.232-64.448-143.456-144-143.456c-79.52,0-144,64.224-144,143.456c0,19.68,0,40.96, 8,56.928
		C 127.648,328.448, 80,288.608, 80,288.608S 181.184,432, 319.648,432c 138.496,0, 240.352-143.392, 240.352-143.392S 511.616,328.448, 455.616,344.384z M 432,311.008
		c0,16-8,32-8,32s-25.12,11.648-72,16c-48.512,4.512-64,0-64,0s-16-16-16-48c0-44.192, 35.808-80, 80-80
		S 432,266.816, 432,311.008z"  />
<glyph unicode="&#xe00b;" d="M 416,336L 416,416.192 C 416,433.696, 401.6,448, 384,448L 96,448 C 78.4,448, 64,433.696, 64,416.192l0-256.416 C 64,142.272, 78.4,128, 96,128l 288,0 c 17.6,0, 32,14.24, 32,31.744L 416,240 
		l 160-96l0,288 L 416,336z"  />
<glyph unicode="&#xe00c;" d="M 320,32c-141.376,0-256,114.624-256,256c0,141.376, 114.624,256, 256,256s 256-114.624, 256-256C 576,146.656, 461.376,32, 320,32z M 456,376l-48,48L 320,336
	L 232,424l-48-48L 272,288l-88-88l 48-48L 320,240l 88-88l 48,48L 368,288L 456,376z"  />
<glyph unicode="&#xe00d;" d="M 320,544c-141.376,0-256-114.624-256-256c0-141.344, 114.624-256, 256-256s 256,114.624, 256,256C 576,429.376, 461.376,544, 320,544z M 448,416l 48-48L 280,160L 160,288l 48,48
	L 280,256L 448,416z"  />
<glyph unicode="&#xe00e;" d="M 320,544c-141.376,0-256-114.624-256-256c0-141.344, 114.624-256, 256-256s 256,114.624, 256,256C 576,429.376, 461.376,544, 320,544z M 320,160c-27.424,0-48,24-48,48
	S 292.576,256, 320,256s 48-24, 48-48S 347.424,160, 320,160z M 356,288l-72,0 L 272,448l 96,0 L 356,288z"  />
<glyph unicode="&#xe00f;" d="M 544,104c-30.432,24.576-152,40-168,48l0,64 l 16,16c 24,24, 17.248,65.472, 32,64C 440.672,294.24, 446.048,332.736, 448,352
	c 2.24,22.688-16,24-16,24c 0.192,0.736,0,43.296,0,64C 432,515.936, 374.56,544, 320,544S 208,515.936, 208,440c0-20.672-0.192-63.232,0-64
	c0,0-18.24-1.312-16-24c 1.952-19.264, 7.328-57.76, 24-56c 14.752,1.504, 8-40, 32-64l 16-16l0-64 C 248,144, 128,128, 96,104
	c-28.064-21.056-32-48-32-72l 512,0 C 576,56, 571.008,82.208, 544,104z"  />
<glyph unicode="&#xe010;" d="M 32,96c0,19.488, 6.624,35.616, 24,40c 32,8, 144,40, 144,40L 200,224 l-16,16C 164.512,259.488, 172,297.216, 160,296
	C 146.432,294.592, 137.568,320.352, 136,336c-1.824,18.432, 16,24, 16,24s0,15.2,0,32C 152,453.696, 195.648,480, 240,480s 88-26.304, 88-88
	c0-16.8,0-32,0-32s 17.824-5.568, 16-24C 342.432,320.352, 333.568,294.592, 320,296c-12,1.216-4.512-36.512-24-56L 280,224l0-48 
	c0,0, 112-32, 144-40C 441.344,131.68, 448,115.52, 448,96L 240,96 L 32,96 zM 416,312L 608,312L 608,264L 416,264z"  />
<glyph unicode="&#xe011;" d="M 424,136c-32,8-144,40-144,40L 280,224 l 16,16C 315.488,259.488, 308,297.216, 320,296c 13.568-1.408, 22.432,24.352, 24,40
		c 1.824,18.432-16,24-16,24s0,15.2,0,32C 328,453.696, 284.352,480, 240,480S 152,453.696, 152,392c0-16.8,0-32,0-32S 134.176,354.432, 136,336
		C 137.568,320.352, 146.432,294.592, 160,296c 12,1.216, 4.512-36.512, 24-56l 16-16l0-48 c0,0-112-32-144-40C 38.624,131.648, 32,115.52, 32,96l 208,0 
		L 448,96 C 448,115.52, 441.344,131.68, 424,136zM 608,312L 536,312L 536,384L 488,384L 488,312L 416,312L 416,264L 488,264L 488,192L 536,192L 536,264L 608,264 	z"  />
<glyph unicode="&#xe012;" d="M 384,96c0,36.576-32,64-64,64s-64-27.424-64-64c0-36.64, 32-64, 64-64S 384,59.456, 384,96zM 352,224L 288,224L 256,544L 384,544 z"  />
<glyph unicode="&#xe013;" d="M 512,256l0-160 l 32,0 l0-64 L 96,32 l0,64 l 32,0 l0,160 L 96,256 L 96,320 l 64,0 L 160,423.616 C 160,520.768, 212.384,576, 320,576c 106.176,0, 160-56.576, 160-152.384L 480,384 l-64,0 L 416,423.616 C 416,465.984, 408.672,512, 320,512
	C 231.072,512, 224,469.184, 224,423.616L 224,320 l 320,0 l0-64 L 512,256 z M 384,160l0,64 L 256,224 l0-64 L 384,160 z"  />
<glyph unicode="&#xe014;" d="M 336,543.2L 336,544.032 l-0.48,0 C 334.368,551.744, 328,557.728, 320,557.728c-8,0-14.368-5.984-15.52-13.696L 304,544.032 l0-0.832 
	C 170.112,534.912, 64,424, 64,288c0,0, 13.664,48, 48,48C 146.304,336.032, 160,288, 160,288s 15.52,48, 48,48S 256,288, 256,288s 21.472,47.968, 48,48l0-256 
	c0-17.664-14.368-32-32-32s-32,14.336-32,32L 240,96 c0,8.832-7.168,16-16,16S 208,104.864, 208,96l0-16 c0-35.296, 28.704-64, 64-64s 64,28.704, 64,64l0,256 
	c 26.496,0, 48-48, 48-48s 11.744,48, 48,48c 36.288,0, 48-48, 48-48s 10.56,48, 48.032,48C 565.44,336.032, 576,288, 576,288
	C 576,424, 469.92,534.912, 336,543.2z"  />
<glyph unicode="&#xe015;" d="M 544,448c 24,16, 48,40, 56,72c-24-16-48-24-77.984-30.272C 504,512, 464,528, 432,528c-72,0-120-56-120-120
	c0,0,0-16, 8-32c-100.672,5.056-196.224,54.688-256,128c-8-16-16-32-16-56c0-42.016, 32-88, 64-104c-40,0-63.552,15.2-63.552,15.2
	c0-40.8, 41.76-109.216, 97.184-120.32c0,0-17.632-6.848-33.632-6.848S 88,240, 88,240c 16-48, 64-88, 120-88c-32-32-96-48-152-48
	l-16,0 c 32-32, 99.552-56, 168-56c 232,0, 344,176, 344,344c0,5.248,0,16,0,16c 21.152,15.552, 48,32, 64,63.2
	C 594.272,461.536, 568,448, 544,448z"  />
<glyph unicode="&#xe016;" d="M 592,480l-207.968,0 L 448,544l-32,32L 320.032,480L 319.968,480 L 224,576L 192,544L 255.968,480L 48,480 C 39.2,480, 32,472.8, 32,464l0-416 
	C 32,39.2, 39.2,32, 48,32l 544,0 c 8.8,0, 16,7.2, 16,16l0,416 C 608,472.8, 600.8,480, 592,480z M 480,96L 96,96 L 96,416 l 384,0 L 480,96 z M 544,256
	c-17.696,0-32,14.304-32,32c0,17.664, 14.304,32, 32,32s 32-14.336, 32-32C 576,270.336, 561.696,256, 544,256z M 544,352c-17.696,0-32,14.336-32,32s 14.304,32, 32,32
	s 32-14.336, 32-32S 561.696,352, 544,352z"  />
<glyph unicode="&#xe017;" d="M 508.128,480C 512.16,517.92, 512,544, 512,544L 128,544 c0,0, 0.096-26.080, 4.32-64L 32,480 l0-32 c0,0, 0.288-137.344, 153.344-157.376
	c 22.976-43.2, 54.848-80.256, 100.032-98.624l0-96 l-96-64l0-32 L 448,0 l0,32 l-96,64l0,96 c 46.72,18.368, 79.424,55.456, 102.88,98.656C 607.712,310.816, 608,448, 608,448L 608,480 L 508.128,480 z
	 M 64,448l 72.576,0 c 5.824-37.28, 15.712-80.704, 32.128-121.76C 64.16,351.744, 64,448, 64,448z M 471.84,326.432c 16.64,40.992, 26.464,84.352, 32.16,121.6L 576,448.032 
	C 576,448, 575.808,352.128, 471.84,326.432z"  />
<glyph unicode="&#xe018;" d="M 312.48,333.92l 243.296,145.92l-26.72,26.72L 218.080,434.848L 172.416,483.744
	C 129.76,529.28, 82.88,554.528, 68.192,539.808c-14.72-14.688, 10.56-61.568, 56.064-104.224l 48.864-45.76l-71.712-310.88l 26.72-26.72l 145.952,243.264
	l 98.848-92.48c 4.288-4.064, 8.608-7.84, 12.928-11.648l-12.96-116.608L 415.584,32l 33.984,111.68c 9.856-5.28, 16.928-7.36, 19.456-4.736
	c 2.56,2.496, 0.512,9.632-4.704,19.424L 576,192.352l-42.816,42.784l-116.576-12.928c-3.776,4.288-7.584,8.576-11.648,12.864L 312.48,333.92z"  />
<glyph unicode="&#xe019;" d="M 544,480c0,17.6-14.4,32-32,32l-96,0 L 416,576 L 224,576 l0-64 L 128,512 C 110.4,512, 96,497.6, 96,480l0-64 l 32,0 l 0.032-384c0-17.632, 14.4-32, 32-32L 480,0 c 17.6,0, 32,14.368, 32,32L 512,416 l 32,0 L 544,480 z M 256,544
	l 128,0 l0-32 L 256,512 L 256,544 z M 160,416l 32.992,0 l0-383.968 l-32.96,0 L 160,416z M 352,416l 32.992,0 l0-383.968 l-32.96,0 L 352,416z M 223.456,416l 96.704,0 l0-383.968 L 223.488,32.032 L 223.456,416z M 414.912,416L 480,416 l0-383.968 
	l-65.056,0 "  />
<glyph unicode="&#xe01a;" d="M 560,448L 448,448 l0,64 c0,17.664-14.304,32-32,32L 224,544 c-17.664,0-32-14.336-32-32l0-64 L 80,448 C 71.2,448, 64,440.8, 64,432l0-32 C 64,391.232, 71.2,384, 80,384L 128,384 l0-320 
		c0-17.696, 14.336-32, 32-32l 320,0 c 17.696,0, 32,14.304, 32,32L 512,384 l 48,0 C 568.8,384, 576,391.232, 576,400l0,32 C 576,440.8, 568.8,448, 560,448z M 224,480.032l0,32 l 32,0 l 128,0 l 32,0 l0-32 l0-32 
		L 224,448.032 L 224,480.032 z M 480,96l0-32 l-32,0 L 192,64 L 160,64 l0,32 L 160,384 l 320,0 L 480,96 zM 416,112c 8.832,0, 16,7.168, 16,16L 432,320 c0,8.832-7.168,16-16,16S 400,328.864, 400,320l0-192 C 400,119.168, 407.168,112, 416,112zM 320,112c 8.832,0, 16,7.168, 16,16L 336,320 c0,8.832-7.168,16-16,16S 304,328.864, 304,320l0-192 C 304,119.168, 311.168,112, 320,112zM 224,112c 8.832,0, 16,7.168, 16,16L 240,320 c0,8.832-7.168,16-16,16S 208,328.864, 208,320l0-192 C 208,119.168, 215.168,112, 224,112z"  />
<glyph unicode="&#xe01b;" d="M 416,576L 224,576 c-35.2,0-64-28.8-64-64l0-448 c0-35.2, 28.8-64, 64-64l 192,0 c 35.2,0, 64,28.8, 64,64L 480,512 C 480,547.232, 451.2,576, 416,576z M 320,64c-35.328,0-64,28.672-64,64
	s 28.672,64, 64,64s 64-28.672, 64-64S 355.328,64, 320,64z M 320,224c-35.328,0-64,28.672-64,64s 28.672,64, 64,64s 64-28.672, 64-64S 355.328,224, 320,224z M 320,384
	C 284.672,384, 256,412.672, 256,448s 28.672,64, 64,64s 64-28.672, 64-64S 355.328,384, 320,384z"  />
<glyph unicode="&#xe01c;" d="M 608,192L 608,384 c0,35.2-28.8,64-64,64L 96,448 c-35.2,0-64-28.8-64-64l0-192 c0-35.2, 28.8-64, 64-64l 448,0 C 579.2,128, 608,156.832, 608,192z M 96,288c0,35.328, 28.672,64, 64,64
	s 64-28.672, 64-64s-28.672-64-64-64S 96,252.672, 96,288z M 256,288c0,35.328, 28.672,64, 64,64s 64-28.672, 64-64s-28.672-64-64-64S 256,252.672, 256,288z M 416,288
	c0,35.328, 28.672,64, 64,64s 64-28.672, 64-64s-28.672-64-64-64S 416,252.672, 416,288z"  />
<glyph unicode="&#xe01d;" d="M 586.56,426.592L 480,320l-96,32l-32,96l 106.56,106.592C 444.928,558.016, 430.72,560, 416,560C 318.88,560, 240,481.12, 240,384
	c0-29.824, 7.488-57.888, 20.608-82.528l-187.904-126.976l 0.352-0.064c-4.512-3.136-8.928-6.528-12.96-10.56c-37.472-37.504-37.472-98.304,0-135.776
	c 37.504-37.472, 98.304-37.472, 135.776,0c 4.96,4.96, 12.832,15.904, 12.832,15.904l 124.768,184.608C 358.112,215.52, 386.176,208, 416,208
	c 97.12,0, 176,78.848, 176,176C 592,398.72, 590.016,412.928, 586.56,426.592z M 128,48c-26.496,0-48,21.504-48,48s 21.504,48, 48,48
	s 48-21.504, 48-48S 154.496,48, 128,48z"  />
<glyph unicode="&#xe01e;" d="M 64,96c0-17.696, 14.304-32, 32-32l 448,0 c 17.696,0, 32,14.304, 32,32L 64,96 zM 416,448L 416,512 L 224,512 l0-64 L 64,448 l0-64 l 512,0 L 576,448 L 416,448 z M 256,448L 256,480 l 128,0 l0-32 L 256,448 zM 480,288L 448,288L 448,352L 192,352L 192,288L 160,288L 160,352L 64,352L 64,128L 576,128L 576,352L 480,352 	z"  />
<glyph unicode="&#xe01f;" d="M 384,402.72L 383.904,402.72L 205.248,224L 256,173.28L 434.752,352.032L 384,402.784 	zM 585.376,374.656L 538.272,421.76C 530.24,418.144, 521.376,416, 512,416c-35.328,0-64,28.64-64,64c0,9.376, 2.112,18.24, 5.76,26.272l-47.136,47.136
		c-12.448,12.448-32.8,12.448-45.248,0l-306.752-306.752c-12.448-12.448-12.448-32.8,0-45.248l 47.136-47.136C 109.792,157.888, 118.624,160, 128,160
		c 35.328,0, 64-28.672, 64-64c0-9.376-2.112-18.208-5.76-26.24l 47.104-47.136c 12.448-12.448, 32.8-12.448, 45.248,0l 306.752,306.752
		C 597.824,341.856, 597.824,362.208, 585.376,374.656z M 457.376,329.408l-178.752-178.752C 272.384,144.416, 264.192,141.344, 256,141.344
		s-16.416,3.104-22.624,9.312l-50.752,50.752c-12.448,12.448-12.448,32.8,0,45.248l 178.752,178.752C 367.584,431.616, 375.808,434.72, 384,434.72
		s 16.416-3.104, 22.624-9.344l 50.752-50.752C 469.824,362.208, 469.824,341.856, 457.376,329.408z"  />
<glyph unicode="&#xe020;" d="M 320,544c 35.296,0, 64-28.704, 64-64l0-192.704 l0-15.936 l 12.704-9.6C 429.312,237.12, 448,200.032, 448,160c0-70.592-57.408-128-128-128c-70.592,0-128,57.408-128,128
		c0,40.032, 18.688,77.088, 51.296,101.728L 256,271.328l0,15.936 L 256,480 C 256,515.296, 284.704,544, 320,544 M 320,576C 266.976,576, 224,533.024, 224,480l0-192.704 
		C 185.344,258.080, 160,212.192, 160,160c0-88.384, 71.616-160, 160-160s 160,71.616, 160,160c0,52.192-25.344,98.048-64,127.264L 416,480 C 416,533.024, 373.024,576, 320,576L 320,576zM 352,249.664L 352,416 c0,17.664-14.336,32-32,32C 302.336,448, 288,433.664, 288,416l0-166.304 c-37.216-13.216-64-48.384-64-90.112c0-52.992, 42.976-96, 96-96
	c 52.992,0, 96,43.008, 96,96C 416,201.312, 389.184,236.448, 352,249.664z"  />
<glyph unicode="&#xe021;" d="M 577.952,545.952c-18.752,18.752-49.12,18.752-67.872,0L 184.576,220.448C 176.672,222.56, 168.544,224, 160,224c-53.024,0-96-43.008-96-96
	c0-53.024, 42.976-96, 96-96c 53.024,0, 96,42.976, 96,96c0,8.544-1.472,16.672-3.552,24.576l 122.176,122.176l-33.952,33.952
	c-6.24,6.24-6.24,16.384,0,22.624s 16.384,6.24, 22.624,0l 33.952-33.952l 41.376,41.376l-33.952,33.952c-6.24,6.24-6.24,16.384,0,22.624
	s 16.384,6.24, 22.624,0l 33.952-33.952l 41.376,41.376l-33.952,33.952c-6.24,6.24-6.24,16.384,0,22.624s 16.384,6.24, 22.624,0l 33.952-33.952
	l 52.672,52.672C 596.672,496.8, 596.672,527.232, 577.952,545.952z"  />
<glyph unicode="&#xe022;" d="M 320,544c-141.376,0-256-114.624-256-256s 114.624-256, 256-256s 256,114.592, 256,256S 461.376,544, 320,544z M 352,82.688L 352,192 L 288,192 l0-109.312 
		C 198.944,96.576, 128.576,166.944, 114.72,256L 224,256 L 224,320 L 114.72,320C 128.576,409.056, 198.944,479.424, 288,493.28L 288,384 l 64,0 L 352,493.28 C 441.056,479.424, 511.424,409.056, 525.28,320
		L 416,320l0-64 L 525.28,256C 511.424,166.944, 441.056,96.576, 352,82.688z"  />
<glyph unicode="&#xe023;" d="M 278.048,54.656c-12.448-12.448-32.8-12.448-45.248,0l-146.752,146.752c-12.448,12.448-12.448,32.8,0,45.248L 352,512c 32,32, 64.576,32, 96,32
	l 95.424,0c 17.6,0, 32-14.4, 32-32L 576,416c0-32,0-64-32-96L 278.048,54.656z M 544,480c0,17.664-14.304,32-32,32s-32-14.336-32-32s 14.304-32, 32-32S 544,462.336, 544,480z"  />
<glyph unicode="&#xe024;" d="M 544,576L 96,576 C 78.4,576, 64,561.6, 64,544l0-512 c0-17.6, 14.4-32, 32-32l 448,0 c 17.6,0, 32,14.4, 32,32L 576,544 C 576,561.6, 561.6,576, 544,576z M 336,24
	c0-4.416-3.584-8-8-8l-16,0 c-4.416,0-8,3.584-8,8l0,16 c0,4.416, 3.584,8, 8,8l 16,0 
	c 4.416,0, 8-3.584, 8-8L 336,24 z M 512,64L 128,64 L 128,512 l 384,0 L 512,64 z"  />
<glyph unicode="&#xe025;" d="M 256,288A64,64 180 1 1 384,288A64,64 180 1 1 256,288zM 410.496,378.56c 49.984-49.984, 50.016-131.040,0-181.056l 45.248-45.248c 75.040,75.040, 75.040,196.544,0,271.552L 410.496,378.56z M 229.504,197.504
	c-49.984,49.984-50.016,131.040,0,181.024L 184.224,423.808c-75.008-75.040-75.008-196.544,0-271.552L 229.504,197.504zM 138.976,469.056c-100.032-100.064-100.032-262.016,0-362.048l-45.248-45.248c-125.056,125.056-125.056,327.488,0,452.576L 138.976,469.056z
	 M 546.272,514.304c 125.024-125.056, 125.024-327.488,0-452.576l-45.28,45.248c 100.064,100.064, 100.064,262.016,0,362.048L 546.272,514.304z"  />
<glyph unicode="&#xe026;" d="M 320,416c 70.592,0, 128-57.408, 128-128s-57.44-128-128-128s-128,57.44-128,128S 249.408,416, 320,416 M 320,448c-88.352,0-160-71.648-160-160c0-88.32, 71.648-160, 160-160
	c 88.32,0, 160,71.68, 160,160C 480,376.384, 408.32,448, 320,448L 320,448z M 336,496.032l0,32 c0,8.832-7.2,16-16,16c-8.832,0-16-7.168-16-16l0-32 
	c0-8.832, 7.168-16, 16-16C 328.8,480.032, 336,487.2, 336,496.032z M 478.368,423.808l 22.624,22.624c 6.24,6.24, 6.24,16.384,0,22.624
	s-16.384,6.24-22.624,0l-22.624-22.624c-6.24-6.24-6.24-16.384,0-22.624c 3.136-3.136, 7.232-4.672, 11.328-4.672
	S 475.264,420.672, 478.368,423.808z M 576,288.032c0,8.832-7.168,16-16,16l-32,0 c-8.832,0-16-7.168-16-16s 7.168-16, 16-16l 32,0 
	C 568.832,272.032, 576,279.2, 576,288.032z M 501.056,107.040c 6.24,6.24, 6.24,16.384,0,22.624l-22.624,22.624c-6.24,6.24-16.384,6.24-22.624,0
	s-6.24-16.384,0-22.624l 22.624-22.624c 3.136-3.136, 7.232-4.672, 11.328-4.672S 497.952,103.936, 501.056,107.040z M 336.064,48l0,32 
	c0,8.832-7.168,16-16,16s-16-7.168-16-16l0-32 c0-8.832, 7.168-16, 16-16S 336.064,39.168, 336.064,48z M 161.664,106.944l 22.624,22.624
	c 6.24,6.24, 6.24,16.384,0,22.624s-16.384,6.24-22.624,0l-22.624-22.624c-6.24-6.24-6.24-16.384,0-22.624
	c 3.136-3.136, 7.232-4.672, 11.328-4.672S 158.528,103.84, 161.664,106.944z M 128,287.968c0,8.832-7.168,16-16,16l-32,0 
	c-8.832,0-16-7.168-16-16s 7.168-16, 16-16l 32,0 C 120.832,271.968, 128,279.104, 128,287.968z M 184.192,423.744c 6.24,6.24, 6.24,16.384,0,22.624
	L 161.568,468.992c-6.24,6.24-16.384,6.24-22.624,0s-6.24-16.384,0-22.624l 22.624-22.624c 3.136-3.136, 7.232-4.672, 11.328-4.672
	S 181.056,420.608, 184.192,423.744z"  />
<glyph unicode="&#xe027;" d="M 256,256L 96,256 l0,32 l 160,0 L 256,256 z M 416,447.584L 96,447.584 l0-64 l 320,0 L 416,447.584 z M 288,128l 128,0 l0,160 L 288,288 L 288,128 z M 416,352.032L 96,352.032 l0-32 l 320,0 L 416,352.032 z M 256,224L 96,224 l0-32 l 160,0 L 256,224 z M 256,160L 96,160 l0-32 l 160,0 L 256,160 z
		 M 544,480l-32,0 l0-335.488 l 0.096,0 c0-0.192-0.096-0.32-0.096-0.512c0-8.8, 7.168-16, 16-16s 16,7.2, 16,16
		c0,0.192-0.096,0.32-0.096,0.512L 544,144.512 L 544,480 z M 576,447.616L 576,144 c0-26.496-21.504-48-48-48S 480,117.504, 480,144L 480,512 L 32,512 l0-384 c0-35.2, 28.8-64, 64-64l 432,0 
		c 48,0, 80,32, 80,80L 608,447.584 L 576,447.616z M 96,96c-17.632,0-32,14.368-32,32L 64,480 l 384,0 l0-336 c0-17.984, 5.984-34.624, 16.032-48L 96,96 z"  />
<glyph unicode="&#xe028;" d="M 608,447.616L 608,144 c0-26.496-21.504-48-48-48S 512,117.504, 512,144L 512,512 L 64,512 l0-319.52 l 32,0 L 96,480 l 384,0 l0-336 
		c0-17.984, 5.984-34.624, 16.032-48L 192,96 l0-32 l 368,0 c 48,0, 80,32, 80,80L 640,447.584 L 608,447.616zM 128,447.584L 448,447.584L 448,383.584L 128,383.584zM 320,288.032L 448,288.032L 448,128.032L 320,128.032zM 560,128c 8.832,0, 16,7.2, 16,16c0,0.192-0.096,0.32-0.096,0.512L 576,144.512 L 576,480 l-32,0 l0-335.488 l 0.096,0 
		c0-0.192-0.096-0.32-0.096-0.512C 544,135.2, 551.168,128, 560,128zM 128,352.032L 448,352.032L 448,320.032L 128,320.032zM 128,288.032L 288,288.032L 288,256.032L 128,256.032zM 128,128L 192,128L 288,128L 288,160L 128,160 	zM 128,224L 288,224L 288,192L 128,192zM 96,160L 64,160L 64,96L0,96L0,64L 64,64L 64,0L 96,0L 96,64L 160,64L 160,96L 96,96 	z"  />
<glyph unicode="&#xe029;" d="M 552.128,143.328l-139.008,90.304c-5.216-21.728-17.824-40.384-35.008-53.568l 139.136-90.368c 14.816-9.632, 34.624-5.44, 44.256,9.376
		S 566.944,133.696, 552.128,143.328zM 352,346.144L 352,512.032 c0,17.664-14.304,32-32,32c-17.664,0-32-14.336-32-32l0-165.888 C 298.048,349.728, 308.704,352, 320,352C 331.296,352, 341.952,349.696, 352,346.144
		zM 226.88,233.632l-139.008-90.304c-14.816-9.632-19.008-29.44-9.376-44.256s 29.44-19.008, 44.256-9.376l 139.136,90.368
		C 244.672,193.28, 232.096,211.936, 226.88,233.632zM 256,256A64,64 180 1 1 384,256A64,64 180 1 1 256,256z"  />
<glyph unicode="&#xe02a;" d="M 566.784,174.4l-182.752,117.6L 384.032,512 c0,17.664-28.64,32-64.032,32C 284.64,544, 256.032,529.664, 256.032,512l0-215.104 l-183.264-123.808
	c-14.656-9.952-10.496-41.632, 9.312-71.008c 19.808-29.312, 47.68-44.992, 62.336-35.072l 172.032,116.256l 181.024-116.512
	c 14.88-9.568, 42.4,6.752, 61.568,36.512S 581.632,164.832, 566.784,174.4z M 133.248,83.584c-7.36-4.928-24.288,7.328-37.888,27.424
	c-13.696,20.256-18.752,40.512-11.424,45.44c 7.328,4.992, 24.288-7.328, 37.952-27.488C 135.456,108.832, 140.512,88.512, 133.248,83.584z M 320,496
	C 295.68,496, 276.032,503.168, 276.032,512S 295.68,528, 320,528c 24.352,0, 44.032-7.168, 44.032-16S 344.352,496, 320,496z M 545.6,111.968
	c-13.184-20.512-29.856-33.184-37.28-28.384c-7.424,4.736-2.784,25.184, 10.368,45.696c 13.152,20.448, 29.824,33.056, 37.248,28.32
	C 563.36,152.768, 558.752,132.384, 545.6,111.968z"  />
<glyph unicode="&#xe02b;" d="M 320,544c-141.376,0-256-114.624-256-256s 114.624-256, 256-256c 141.376,0, 256,114.592, 256,256S 461.376,544, 320,544z M 416,192L 224,192 L 224,384 l 192,0 L 416,192 z"  />
<glyph unicode="&#xe02c;" d="M 128,480L 512,480L 512,96L 128,96z"  />
<glyph unicode="&#xe02d;" d="M 576,288c0,141.376-114.624,256-256,256s-256-114.624-256-256c0-141.312, 114.496-255.872, 255.744-256C 319.808,32, 319.936,32, 320,32S 320.192,32, 320.256,32
			C 461.504,32.128, 576,146.688, 576,288z M 320,496c 114.688,0, 208-93.312, 208-208c0-54.592-21.312-104.16-55.808-141.312
			c-25.408,15.36-64.48,34.304-111.328,41.888L 320,352l-40.832-163.424c-46.88-7.552-85.952-26.496-111.328-41.888C 133.312,183.84, 112,233.408, 112,288
			C 112,402.688, 205.312,496, 320,496zM 288,416A32,32 180 1 1 352,416A32,32 180 1 1 288,416zM 378.496,378.528A32,32 180 1 1 442.496,378.528A32,32 180 1 1 378.496,378.528zM 416,288.032A32,32 180 1 1 480,288.032A32,32 180 1 1 416,288.032zM 197.504,378.528A32,32 180 1 1 261.504,378.528A32,32 180 1 1 197.504,378.528zM 160,288.032A32,32 180 1 1 224,288.032A32,32 180 1 1 160,288.032z"  />
<glyph unicode="&#xe02e;" d="M 576,360L 392,360L 320,544L 248,360L 64,360L 216,232L 144,32L 320,152L 496,32L 424,232 	z"  />
<glyph unicode="&#xe02f;" d="M 320,544L 248,360L 64,360L 216,232L 144,32L 320,152 	z"  />
<glyph unicode="&#xe030;" d="M 544,487.552c-0.352-20.064-32-19.808-32-39.904c0-20.032, 32-20.032, 32-40.064c0-20-32-20-32-40c0-20.032, 32-20.032, 32-40.032
	s-32-20-32-40c0-19.968, 32-19.968, 32-39.968s-32-20-32-40c0-19.936, 32-19.936, 32-39.904c0-19.936-32-19.936-32-39.872c0-20, 32-20, 32-40
	c0-19.904-14.912-14.272-28.032-29.216C 504.48,45.44, 510.56,32, 493.12,32s-17.44,32-34.848,32s-17.408-32-34.784-32c-17.344,0-17.344,32-34.688,32
	c-17.248,0-17.248-32-34.528-32c-17.344,0-17.344,32-34.688,32c-17.312,0-17.312-32-34.624-32c-17.344,0-17.344,32-34.688,32c-17.28,0-17.28-32-34.592-32
	c-17.28,0-17.28,32-34.56,32c-17.344,0-17.344-32-34.656-32c-17.248,0-11.104,13.344-22.336,26.4C 111.072,73.664, 96,68.096, 96,88.192
	c0,20.064, 32,20.064, 32,40.16c0,20.032-32,20.032-32,40.064c0,20, 32,20, 32,40c0,20.032-32,20.032-32,40.064c0,20, 32,20, 32,40
	c0,19.968-32,19.968-32,39.968c0,20, 32,20, 32,40.032c0,19.968-32,19.968-32,39.904s 32,19.936, 32,39.904c0,20-32,20-32,39.968
	C 96,508.096, 110.912,502.496, 124.032,517.44C 135.52,530.56, 129.44,544, 146.848,544s 17.408-32, 34.848-32c 17.376,0, 17.376,32, 34.752,32C 233.856,544, 233.856,512, 251.2,512
	c 17.28,0, 17.28,32, 34.528,32c 17.344,0, 17.344-32, 34.656-32c 17.312,0, 17.312,32, 34.624,32c 17.344,0, 17.344-32, 34.688-32c 17.28,0, 17.28,32, 34.56,32
	s 17.28-32, 34.592-32s 17.312,32, 34.624,32c 17.248,0, 11.136-13.344, 22.368-26.432C 528.928,502.336, 544.288,503.968, 544,487.552z M 480,480L 160,480 l0-384 l 320,0 L 480,480 z"  />
<glyph unicode="&#xe031;" d="M 448,192c0-17.6-14.4-32-32-32L 223.36,160 c-17.6,0-32,14.4-32,32l0,192 c0,17.6, 14.4,32, 32,32L 416,416 c 17.6,0, 32-14.4, 32-32L 448,192 z"  />
<glyph unicode="&#xe032;" d="M 448,160L 223.36,160 c-17.6,0-32,14.4-32,32l0,224 L 416,416 c 17.6,0, 32-14.4, 32-32L 448,160 z"  />
<glyph unicode="&#xe033;" d="M 287.968,96L 223.968,160L 191.968,128L 287.968,32L 480,224L 448,256 	zM 384,320L 384,416L 352,416L 352,352L 288,352L 288,416L 352,416L 352,448L 288,448L 288,512L 352,512L 352,448L 384,448L 384,544L 256,544L 256,320 	zM 160,320l 32,0 L 192,544 L 64,544 l0-224 l 32,0 L 96,416 l 64,0 L 160,320 z M 96,448L 96,512 l 64,0 l0-64 L 96,448 zM 480,512L 576,512L 576,544L 448,544L 448,320L 576,320L 576,352L 480,352 	z"  />
<glyph unicode="&#xe034;" d="M 400,432C 338.144,432, 288,367.552, 288,288c0-79.456, 50.144-144, 112-144c 61.824,0, 112,64.544, 112,144C 512,367.552, 461.824,432, 400,432z
		 M 352,224c-17.664,0-32,28.672-32,64c0,35.36, 14.336,64, 32,64s 32-28.672, 32-64C 384,252.704, 369.664,224, 352,224zM 320,544c-141.376,0-256-114.624-256-256c0-141.344, 114.624-256, 256-256s 256,114.624, 256,256C 576,429.376, 461.376,544, 320,544z M 320,64c-123.712,0-224,100.32-224,224
		c0,123.712, 100.288,224, 224,224c 123.68,0, 224-100.288, 224-224C 544,164.32, 443.68,64, 320,64z"  />
<glyph unicode="&#xe035;" d="M 32,351.968l0-128 l 128,0 l 128-128l0,384 l-128-128L 32,351.968 zM 544,352.032L 512,384.032L 448,320.032L 384,384.032L 352,352.032L 416,288.032L 352,224.064L 384,192.064L 448,256.032L 512,192.064L 544,224.064L 480,288 
	z"  />
<glyph unicode="&#xe036;" d="M 461.376,115.104C 490.304,161.6, 506.24,223.040, 506.24,288c0,64.96-15.936,126.336-44.864,172.832c-6.016,9.696-18.56,12.576-28.064,6.4
	s-12.32-19.040-6.24-28.704c 24.8-39.936, 38.56-93.344, 38.56-150.56c0-57.184-13.76-110.624-38.56-150.496
	c-6.016-9.696-3.264-22.56, 6.24-28.736c 3.36-2.176, 7.2-3.264, 10.88-3.264C 450.944,105.472, 457.504,108.928, 461.376,115.104z
	 M 391.616,193.248c 8.384,25.632, 12.928,59.36, 12.928,94.752c0,35.456-4.608,69.152-12.928,94.784c-3.552,10.912-15.008,16.704-25.76,13.184
	c-10.624-3.68-16.416-15.424-12.864-26.336C 359.936,348.48, 363.936,318.688, 363.936,288c0-30.688-4-60.448-10.944-81.632
	c-3.488-10.88, 2.24-22.624, 12.864-26.304c 2.144-0.64, 4.32-1.056, 6.4-1.056C 380.8,178.976, 388.8,184.48, 391.616,193.248z M 32,352l0-128 l 128,0 l 128-128L 288,480 L 160,352
	L 32,352 z"  />
<glyph unicode="&#xe037;" d="M 516.128,32c-4.256,0-8.576,1.312-12.192,4.128c-8.992,6.88-10.816,19.936-4.064,29.12c 43.424,59.264, 67.424,138.304, 67.424,222.688
	c0,84.352-24,163.456-67.424,222.72c-6.752,9.184-4.928,22.24, 4.064,29.088c 8.928,6.944, 21.696,5.088, 28.448-4.16
	C 581.12,469.216, 608,381.248, 608,287.968c0-93.28-26.88-181.28-75.616-247.712C 528.384,34.816, 522.24,32, 516.128,32z M 461.376,115.072
	c 28.928,46.496, 44.864,107.936, 44.864,172.896c0,64.96-15.936,126.336-44.864,172.832c-6.016,9.696-18.56,12.576-28.064,6.4
	c-9.504-6.176-12.32-19.040-6.24-28.704c 24.8-39.936, 38.56-93.344, 38.56-150.528c0-57.216-13.76-110.656-38.56-150.528
	c-6.048-9.696-3.264-22.56, 6.24-28.736c 3.36-2.176, 7.2-3.264, 10.88-3.264C 450.944,105.44, 457.504,108.896, 461.376,115.072z
	 M 391.616,193.216c 8.384,25.632, 12.928,59.328, 12.928,94.752c0,35.456-4.576,69.12-12.928,94.784c-3.552,10.912-15.008,16.704-25.76,13.184
	c-10.624-3.68-16.384-15.424-12.864-26.336c 6.944-21.152, 10.944-50.944, 10.944-81.632s-4-60.448-10.944-81.632
	c-3.488-10.88, 2.24-22.624, 12.864-26.304c 2.176-0.672, 4.32-1.056, 6.432-1.056C 380.8,178.944, 388.8,184.448, 391.616,193.216z M 32,351.968l0-128 l 128,0 
	l 128-128l0,384 l-128-128L 32,351.968 z"  />
<glyph unicode="&#xe038;" d="M 391.616,193.248c 8.384,25.632, 12.928,59.36, 12.928,94.752c0,35.456-4.608,69.152-12.928,94.784c-3.552,10.912-15.008,16.704-25.76,13.184
	c-10.624-3.68-16.416-15.424-12.864-26.336C 359.936,348.48, 363.936,318.688, 363.936,288c0-30.688-4-60.448-10.944-81.632
	c-3.488-10.88, 2.24-22.624, 12.864-26.304c 2.144-0.64, 4.32-1.056, 6.4-1.056C 380.8,178.976, 388.8,184.48, 391.616,193.248z M 32,352l0-128 l 128,0 l 128-128L 288,480 L 160,352
	L 32,352 z"  />
<glyph unicode="&#xe039;" d="M 96,384l 64,0 l0-288 c0-17.696, 14.336-32, 32-32s 32,14.304, 32,32L 224,384 l 64,0 L 192,512L 96,384zM 480,192L 480,480 c0,17.696-14.304,32-32,32s-32-14.304-32-32l0-288 l-64,0 l 96-128l 96,128L 480,192 z"  />
<glyph unicode="&#xe03a;" d="M 192,64L 192,192L 192,192L 192,512L 128,512L 128,192L 64,192 	zM 256,128L 576,128L 576,64L 256,64zM 256,256L 512,256L 512,192L 256,192zM 256,384L 448,384L 448,320L 256,320zM 256,512L 384,512L 384,448L 256,448z"  />
<glyph unicode="&#xe03b;" d="M 64,384L 128,384L 128,64L 192,64L 192,384L 192,384L 192,512 	zM 256,512L 576,512L 576,448L 256,448zM 256,384L 512,384L 512,320L 256,320zM 256,256L 448,256L 448,192L 256,192zM 256,128L 384,128L 384,64L 256,64z"  />
<glyph unicode="&#xe03c;" d="M 355.872,310.656L 310.624,355.904l 82.752,82.752C 399.36,444.64, 407.488,448, 416,448l 32,0 L 448,512 l 128-96l-128-96L 448,384 l-18.752,0 L 355.872,310.656z M 146.752,192L 64,192 l0-64 l 96,0 
	c 8.48,0, 16.64,3.36, 22.624,9.376l 82.752,82.752l-45.248,45.248L 146.752,192z M 448,192l-18.752,0 L 182.624,438.656C 176.608,444.672, 168.48,448.032, 160,448.032
	L 64,448l0-64 l 82.72,0l 246.656-246.656C 399.36,131.392, 407.488,128, 416,128l 32,0 l0-64 l 128,96l-128,96L 448,192 z"  />
<glyph unicode="&#xe03d;" d="M 530.944,476.48C 476.448,476.48, 384,490.688, 320,576C 224,448.032, 64,480.032, 64,480.032c0-384, 256-448, 256-448s 256,64, 256,448
		C 576,480.032, 558.208,476.48, 530.944,476.48z M 320.096,65.504c-0.032,0-0.064,0.032-0.096,0.032L 320,527.168 c 70.784-71.168, 160.416-82.688, 210.944-82.688
		c 4.32,0, 8.448,0.064, 12.288,0.224C 530.304,154.656, 359.712,79.136, 320.096,65.504z"  />
<glyph unicode="&#xe03e;" d="M 224,288A96,96 180 1 1 416,288A96,96 180 1 1 224,288zM 606.624,320l-128,0 l0-32 c0-88.352-71.616-160-160-160l0-64 c 112.832,0, 205.888,83.488, 221.44,192l 66.528,0 L 606.592,320 zM 318.656,512.032c-112.8,0-205.92-83.488-221.472-192l-66.56,0 l0-64 l 128,0 l0,32 c0,88.384, 71.648,160, 160,160L 318.624,512.032 z"  />
<glyph unicode="&#xe03f;" d="M 576,256L 576,320 l-68.384,8.544c-4.928,22.976-14.016,44.352-26.368,63.456L 512,448.032l-32,32l-55.968-30.784
		c-19.136,12.352-40.512,21.44-63.456,26.368L 352,543.968L 288,543.968 L 279.424,475.616C 256.48,470.656, 235.104,461.568, 215.968,449.248L 160,480.032l-32-32L 158.752,392
		c-12.352-19.104-21.44-40.48-26.368-63.456L 64,320l0-64 l 68.384-8.576c 4.928-22.976, 14.016-44.384, 26.368-63.456L 128,128l 32-32l 56,30.784
		c 19.168-12.384, 40.576-21.504, 63.584-26.432L 288.096,32l 63.968,0.064l 8.576,68.384c 22.944,4.928, 44.32,14.016, 63.392,26.368L 480,96l 32,32
		l-30.752,55.968c 12.352,19.104, 21.44,40.512, 26.368,63.456L 576,256z M 319.68,160C 249.152,160.192, 192,217.408, 192,288c0,70.656, 57.312,128, 128,128s 128-57.312, 128-128
		c0-70.592-57.152-127.808-127.68-128L 319.68,160 z"  />
<glyph unicode="&#xe040;" d="M 288,361.248L 288,496 c0,17.664, 14.336,32, 32,32c 17.696,0, 32-14.336, 32-32l0-134.752 c-5.088,2.24-10.4,4-16,5.152L 336,496 
	C 336,504.832, 328.832,512, 320,512S 304,504.832, 304,496l0-129.6 C 298.432,365.248, 293.088,363.488, 288,361.248z M 320,208c-11.392,0-22.176,2.464-32,6.752L 288,80 
	c0-17.696, 14.336-32, 32-32c 17.696,0, 32,14.304, 32,32l0,134.752 C 342.176,210.496, 331.392,208, 320,208z M 256,288c0-35.328, 28.672-64, 64-64s 64,28.672, 64,64
	c0,35.328-28.672,64-64,64S 256,323.328, 256,288z M 320,320c 17.696,0, 32-14.336, 32-32S 337.696,256, 320,256S 288,270.336, 288,288S 302.304,320, 320,320z M 144,270.4L 144,496 
	C 144,504.832, 151.168,512, 160,512s 16-7.168, 16-16l0-225.6 c 5.568-1.152, 10.912-2.912, 16-5.152L 192,496 c0,17.664-14.336,32-32,32s-32-14.336-32-32l0-230.752 
	C 133.088,267.488, 138.432,269.248, 144,270.4z M 160,112c-11.392,0-22.176,2.464-32,6.752L 128,80 c0-17.696, 14.336-32, 32-32s 32,14.304, 32,32l0,38.752 
	C 182.176,114.496, 171.392,112, 160,112z M 160,256c 35.328,0, 64-28.672, 64-64s-28.672-64-64-64s-64,28.672-64,64S 124.672,256, 160,256z M 128,192c0-17.696, 14.304-32, 32-32
	s 32,14.304, 32,32c0,17.632-14.304,32-32,32S 128,209.632, 128,192z M 464,496C 464,504.832, 471.168,512, 480,512s 16-7.168, 16-16l0-33.6 
	c 5.6-1.152, 10.912-2.912, 16-5.152L 512,496 c0,17.664-14.304,32-32,32s-32-14.336-32-32l0-38.752 c 5.088,2.208, 10.4,4, 16,5.152L 464,496 z M 448,310.752
	l0-230.72 c0-17.696, 14.304-32, 32-32s 32,14.304, 32,32l0,230.72 C 502.176,306.464, 491.392,304, 480,304S 457.824,306.464, 448,310.752z M 480,448c-35.328,0-64-28.672-64-64
	s 28.672-64, 64-64s 64,28.672, 64,64S 515.328,448, 480,448z M 480,352c-17.696,0-32,14.336-32,32s 14.304,32, 32,32s 32-14.336, 32-32S 497.696,352, 480,352z"  />
<glyph unicode="&#xe041;" d="M 176,320.032C 114.112,320.032, 64,370.176, 64,432C 64,493.888, 114.112,544, 176,544l 288,0 C 525.888,544, 576,493.888, 576,432c0-61.856-50.112-112-112-112L 176,320 z
	 M 544,432C 544,476.192, 508.192,512, 464,512S 384,476.192, 384,432c0-44.16, 35.808-80, 80-80S 544,387.84, 544,432zM 176,32C 114.112,32, 64,82.176, 64,144C 64,205.888, 114.112,256, 176,256l 288,0 c 61.888,0, 112-50.112, 112-112c0-61.856-50.112-112-112-112L 176,32 z
	 M 176,64C 220.192,64, 256,99.84, 256,144S 220.192,224, 176,224S 96,188.192, 96,144S 131.808,64, 176,64z"  />
<glyph unicode="&#xe042;" d="M 398.368,272L 528,272 c 8.8,0, 16,7.168, 16,16s-7.2,16-16,16l-129.632,0 c-1.12,5.6-2.912,10.912-5.12,16L 528,320 
	c 17.664,0, 32-14.304, 32-32c0-17.664-14.336-32-32-32l-134.752,0 C 395.456,261.12, 397.248,266.432, 398.368,272z M 246.752,320L 112,320 c-17.696,0-32-14.304-32-32
	c0-17.664, 14.304-32, 32-32l 134.752,0 C 242.464,265.824, 240,276.64, 240,288C 240,299.424, 242.464,310.208, 246.752,320z M 384,288c0,35.328-28.672,64-64,64
	s-64-28.672-64-64s 28.672-64, 64-64S 384,252.672, 384,288z M 319.968,256C 302.304,256, 288,270.336, 288,288s 14.304,32, 31.968,32s 32-14.304, 32-32S 337.632,256, 319.968,256z
	 M 297.248,96L 528,96 c 17.664,0, 32,14.304, 32,32s-14.336,32-32,32L 297.248,160 c 2.24-5.088, 4-10.432, 5.152-16L 528,144 c 8.8,0, 16-7.168, 16-16
	s-7.2-16-16-16L 302.368,112 C 301.248,106.464, 299.456,101.12, 297.248,96z M 150.752,160L 112,160 c-17.696,0-32-14.304-32-32s 14.304-32, 32-32l 38.752,0 
	C 146.464,105.824, 144,116.64, 144,128S 146.464,150.208, 150.752,160z M 224,64c-35.328,0-64,28.672-64,64s 28.672,64, 64,64s 64-28.672, 64-64S 259.328,64, 224,64z M 256,128
	c0,17.696-14.368,32-32,32c-17.696,0-32-14.304-32-32s 14.304-32, 32-32C 241.632,96, 256,110.336, 256,128z M 494.368,432c-1.12-5.6-2.944-10.912-5.12-16
	L 528,416 c 17.664,0, 32,14.304, 32,32s-14.336,32-32,32l-38.752,0 c 2.208-5.088, 4-10.4, 5.12-16L 528,464 C 536.8,464, 544,456.864, 544,448s-7.2-16-16-16
	L 494.368,432 z M 336,448c0,11.392, 2.432,22.176, 6.752,32L 112,480 c-17.696,0-32-14.304-32-32s 14.304-32, 32-32l 230.752,0 C 338.432,425.824, 336,436.608, 336,448z M 416,512
	c-35.36,0-64-28.672-64-64s 28.64-64, 64-64c 35.328,0, 64,28.672, 64,64S 451.328,512, 416,512z M 416,480c 17.632,0, 32-14.304, 32-32s-14.368-32-32-32
	c-17.696,0-32,14.304-32,32S 398.304,480, 416,480z"  />
<glyph unicode="&#xe043;" d="M 576,384.032l-256,128l-256-128l 256-160L 576,384.032zM 320,160L 149.344,266.656L 64,224L 320,64L 576,224L 490.656,266.688 	z"  />
<glyph unicode="&#xe044;" d="M 608,544L 32,544 l0-384 l 224,0 l0-96 L 160,64 l0-32 l 320,0 l0,32 l-96,0 l0,96 l 224,0 L 608,544 z M 576,224L 64,224 L 64,512 l 512,0 L 576,224 zM 288,384A32,32 180 1 1 352,384A32,32 180 1 1 288,384zM 384,384A32,32 180 1 1 448,384A32,32 180 1 1 384,384zM 192,384A32,32 180 1 1 256,384A32,32 180 1 1 192,384z"  />
<glyph unicode="&#xe045;" d="M 608,160L 608,544 L 32,544 l0-384 l 224,0 l0-96 L 160,64 l0-32 l 320,0 l0,32 l-96,0 l0,96 L 608,160 z M 64,224L 64,512 l 64,0 l0-224 l 64,64l 64-64L 256,512 l 320,0 l0-288 L 64,224 z"  />
<glyph unicode="&#xe046;" d="M 608,160L 608,544 L 32,544 l0-384 l 224,0 l0-96 L 160,64 l0-32 l 320,0 l0,32 l-96,0 l0,96 L 608,160 z M 64,224L 64,512 l 228,0 L 240,384.032l 51.264,0 l-51.264-128l 160,156l-64,0 L 400,512L 576,512 l0-288 L 64,224 z"  />
<glyph unicode="&#xe047;" d="M 32,544l0-384 l 224,0 l0-96 L 160,64 l0-32 l 320,0 l0,32 l-96,0 l0,96 l 224,0 l0,64 L 608,320 L 608,544 L 32,544 z M 64,512l 96,0 L 64,368L 64,512 z M 64,224l 192,288l 96,0 l-192-288L 64,224 z M 256,224l 192,288l 96,0 l-192-288L 256,224 z M 544,224l-96,0 l 128,192l0-144 L 544,224
	z"  />
<glyph unicode="&#xe048;" d="M 608,160L 608,544 L 32,544 l0-384 l 224,0 l0-96 L 160,64 l0-32 l 320,0 l0,32 l-96,0 l0,96 L 608,160 z M 64,512l 512,0 l0-240 c-30.208,0-54.112,0-81.696,55.168c-11.136,22.24-13.664,49.632-16.096,76.128
	C 474.176,446.752, 469.664,496, 416,496c-45.568,0-55.264-58.080-63.776-109.344C 346.080,349.824, 338.432,304, 320,304
	c-18.688,0-23.872,10.144-32.832,37.056C 278.88,365.952, 267.52,400, 224,400l-160,0L 64,512 z M 64,224L 64,368 l 160,0c 18.688,0, 23.872-10.144, 32.832-37.056
	C 265.12,306.080, 276.48,272, 320,272c 45.568,0, 55.264,58.080, 63.776,109.344C 389.92,418.176, 397.568,464, 416,464c 21.44,0, 25.728-13.568, 30.336-63.648
	c 2.592-28.064, 5.536-59.872, 19.328-87.488C 502.112,240, 543.104,240, 576,240L 576,224 L 64,224 z"  />
<glyph unicode="&#xe049;" d="M 608,160L 608,544 L 32,544 l0-384 l 224,0 l0-96 L 160,64 l0-32 l 320,0 l0,32 l-96,0 l0,96 L 608,160 z M 64,224L 64,512 l 512,0 l0-288 L 64,224 zM 224,384A32,32 180 1 1 288,384A32,32 180 1 1 224,384zM 128,384A32,32 180 1 1 192,384A32,32 180 1 1 128,384zM 457.376,463.168L 400.832,406.624L 344.288,463.2L 321.664,440.544L 378.176,384L 321.632,327.424L 344.256,304.8L 400.8,361.344L 457.376,304.8L 480,327.424L 423.424,384L 480,440.544 	z"  />
<glyph unicode="&#xe04a;" d="M 608,544L 32,544 l0-384 l 224,0 l0-96 L 160,64 l0-32 l 320,0 l0,32 l-96,0 l0,96 l 224,0 L 608,544 z M 576,224L 64,224 L 64,512 l 512,0 L 576,224 zM 432,452L 404,480L 320,396L 236,480L 208,452L 292,368L 208,284L 236,256L 320,340.032L 404,256L 432,284L 348,368 	z"  />
<glyph unicode="&#xe04b;" d="M 608,160L 608,544 L 32,544 l0-384 l 224,0 l0-96 L 160,64 l0-32 l 320,0 l0,32 l-96,0 l0,96 L 608,160 z M 64,224L 64,512 l 224,0 l0-96 L 224,416 l 96-128l 96,128l-64,0 L 352,512 l 224,0 l0-288 L 64,224 z"  />
<glyph unicode="&#xe04c;" d="M 32,128l 192,0 l0-64 L 128,64 l0-32 l 256,0 l0,32 L 288,64 l0,64 l 192,0 L 480,448 L 32,448 L 32,128 z M 64,416l 384,0 l0-256 L 64,160 L 64,416 zM 160,544L 160,544L 160,480L 192,480L 192,512L 576,512L 576,288L 512,288L 512,256L 608,256L 608,544 	z"  />
<glyph unicode="&#xe04d;" d="M 608,544L 32,544 l0-384 l 224,0 l0-96 L 160,64 l0-32 l 320,0 l0,32 l-96,0 l0,96 l 224,0 L 608,544 z M 576,224L 64,224 L 64,512 l 512,0 L 576,224 zM 264.64,322.496L 209.248,377.888L 176,344.64L 264.64,256L 464,455.392L 430.752,488.64 	z"  />
<glyph unicode="&#xe04e;" d="M 528,200l0-100.192 C 528,62.4, 434.88,32, 320,32S 112,62.4, 112,99.84L 112,200 c 64.096-40.8, 163.552-48, 208-48
	S 463.872,159.2, 528,200z M 320,320C 274.72,320, 176.096,327.168, 112,368l0-98.592 c0-37.44, 103.968-67.84, 208-67.84s 208,30.4, 208,67.84L 528,368 
	C 463.872,327.168, 365.248,320, 320,320z M 320,576C 205.12,576, 112,545.6, 112,508.16l0-69.248 c0-37.44, 116.256-62.944, 208-62.944s 208,25.504, 208,62.944L 528,508.16 
	C 528,545.6, 434.88,576, 320,576z"  />
<glyph unicode="&#xe04f;" d="M 383.712,544.16c-106.080,0-192.096-86.016-192.096-192.096c0-36.576, 10.72-70.432, 28.48-99.552l-156.256-156.288l 64.032-64.032l 156.256,156.288
		c 29.12-17.824, 63.008-28.512, 99.584-28.512c 106.080,0, 192.128,85.984, 192.128,192.096C 575.84,458.144, 489.824,544.16, 383.712,544.16z M 383.712,224.064
		c-70.656,0-128,57.312-128,127.968c0,70.688, 57.312,128, 128,128c 70.688,0, 128.032-57.312, 128.032-128C 511.744,281.376, 454.4,224.064, 383.712,224.064z"  />
<glyph unicode="&#xe050;" d="M 579.872,163.904c-37.504,37.504-98.24,37.504-135.744,0c-4.416-4.416-8.192-9.184-11.552-14.144l-76.192,107.296
	C 425.952,357.184, 496.576,458.72, 512,480c 32.32,44.544-1.696,96-1.696,96L 320,308.16L 129.696,576C 129.696,576, 95.68,524.544, 128,480
	c 15.456-21.312, 86.112-122.848, 155.616-223.072l-76.192-107.2c-3.36,4.928-7.136,9.76-11.552,14.112c-37.504,37.504-98.272,37.504-135.776,0
	s-37.504-98.24,0-135.744s 98.272-37.504, 135.776,0c 4.064,4.096, 7.52,8.576, 10.72,13.12c-0.224-0.448-0.384-0.8-0.608-1.248
	c0,0, 52.384,75.68, 113.984,164.576c 61.632-88.832, 113.984-164.576, 113.984-164.576c-0.256,0.448-0.384,0.8-0.64,1.28
	c 3.2-4.608, 6.656-9.056, 10.752-13.152c 37.504-37.504, 98.24-37.504, 135.744,0S 617.376,126.4, 579.872,163.904z M 173.248,50.752
	c-24.992-24.992-65.504-24.992-90.496,0c-24.992,24.992-24.992,65.504,0,90.496c 24.992,24.992, 65.504,24.992, 90.496,0
	C 198.24,116.256, 198.24,75.776, 173.248,50.752z M 557.248,50.752c-24.992-24.992-65.504-24.992-90.496,0s-24.992,65.504,0,90.496
	s 65.504,24.992, 90.496,0S 582.24,75.776, 557.248,50.752z M 336,256.032c0-8.832-7.168-16-16-16s-16,7.232-16,16
	c0,8.832, 7.168,16, 16,16S 336,264.864, 336,256.032z"  />
<glyph unicode="&#xe051;" d="M 128,352L 448,352L 448,320L 128,320zM 400.448,32L 96,32 L 96,544 l 384,0 l0-302.528 c 8.672,9.152, 19.456,17.376, 32,23.072L 512,576 L 64,576 l0-576 l 380.032,0 C 432.128,7.52, 416.64,18.272, 400.448,32zM 128,288L 288,288L 288,256L 128,256zM 128,416L 448,416L 448,384L 128,384zM 128,480L 448,480L 448,448L 128,448zM 544,240c-40,0-64-55.552-64-55.552S 456,240, 416,240c-39.872,0-64-34.080-64-63.584c0-94.816, 128-160.384, 128-160.384s 128,65.568, 128,160.384
		C 608,205.888, 583.872,240, 544,240z"  />
<glyph unicode="&#xe052;" d="M 574.944,223.2c-29.312,152.416-232.672,303.84-253.888,319.264L 321.056,544 c0,0-0.736-0.544-1.056-0.768C 319.712,543.456, 318.944,544, 318.944,544l0-1.536 
	C 297.728,527.040, 94.368,375.616, 65.056,223.2C 53.92,165.28, 128,96, 193.056,96c 35.552,0, 71.424,30.624, 95.936,57.28C 260.928,88.736, 224,64, 224,64l0-32 l 192,0 l0,32 
	c0,0-36.928,24.704-64.992,89.28c 24.512-26.656, 60.384-57.28, 95.936-57.28C 512,96, 586.080,165.28, 574.944,223.2z"  />
<glyph unicode="&#xe053;" d="M 512,389.504L 512,96 L 218.528,96 L 512,389.504 M 576,544L 64,32l 512,0 L 576,544 L 576,544z"  />
<glyph unicode="&#xe054;" d="M 512,576L 57.472,121.44c-26.56-26.56-26.528-69.568,0-96.128c 26.592-26.592, 69.6-26.592, 96.192,0c 0.544,0.544, 0.864,1.152, 1.376,1.696
	L 608,480L 512,576z M 128.192,50.752c-12.512-12.512-32.736-12.512-45.248,0C 70.4,63.264, 70.4,83.52, 82.944,96c 12.48,12.512, 32.768,12.512, 45.248,0
	C 140.672,83.52, 140.672,63.264, 128.192,50.752z M 240.192,144.064l-64,64.064l 16,16l 64-64.064L 240.192,144.064z M 272.192,176.064l-64,64.064l 16,16
	l 64-64.064L 272.192,176.064z M 304.192,208.064l-64,64.064l 16,15.936l 64-64L 304.192,208.064z M 336.192,240.064l-64,64l 16,16l 64-64L 336.192,240.064z
	 M 368.192,272.064l-64,63.968l 16,16l 64-64L 368.192,272.064z M 400.192,304l-64,64l 16,16l 64-64L 400.192,304z M 432.192,336l-64,64l 16,16l 64-64
	L 432.192,336z M 464.192,367.968l-64,64l 16,16l 64-64L 464.192,367.968z M 496.192,399.936l-64,64l 16,16l 64-64L 496.192,399.936z M 528.192,431.904l-64,64
	l 16,16l 64-64L 528.192,431.904z M 496.192,527.872l 16,16l 64-64l-16-16L 496.192,527.872z"  />
<glyph unicode="&#xe055;" d="M 576,32C 576,314.784, 346.848,544, 64,544l0-96 c 229.792,0, 416-186.272, 416-416L 576,32 z M 288,32c0,123.68-100.352,224-224,224L 64,352 c 176.704,0, 320-143.296, 320-320L 288,32 z M 128,32
	c-35.328,0-64,28.64-64,64c0,35.328, 28.672,64, 64,64s 64-28.672, 64-64C 192,60.64, 163.328,32, 128,32z"  />
<glyph unicode="&#xe056;" d="M 510.208,272.896C 511.424,289.344, 512,305.216, 512,320L 512,384 l-19.648,19.68c-4.896,10.080-10.432,19.776-16.96,28.768C 478.048,437.12, 480,442.24, 480,448
	c0,17.664-14.304,32-32,32c-5.76,0-10.848-1.92-15.488-4.576c-26.592,19.328-58.496,31.456-92.992,35.008L 352,448l-32-96L 320,512 L 320,608 L 300.48,510.432
	c-34.496-3.52-66.368-15.648-92.992-34.976C 202.848,478.080, 197.728,480, 192,480C 174.304,480, 160,465.696, 160,448c0-5.76, 1.952-10.88, 4.608-15.552
	C 158.080,423.456, 152.576,413.76, 147.68,403.68L 128,384l0-64 c0-14.816, 0.576-30.688, 1.792-47.104L 112,256L 160,64l 34.912,0 c 28.992-38.336, 69.312-64, 125.088-64
	s 96.096,25.664, 125.088,64L 480,64 l 48,192L 510.208,272.896z M 180.672,459.296c 6.24,6.24, 16.384,6.24, 22.624,0C 209.568,453.024, 186.944,430.4, 180.672,436.672
	C 174.432,442.912, 174.464,453.056, 180.672,459.296z M 221.856,415.744C 214.368,414.56, 187.296,406.592, 160,352C 160,352, 160.256,414.144, 221.856,415.744z M 240,105.632
	c-19.744,5.76-32,13.632-32,22.368c0,8.672, 12.256,16.576, 32,22.304L 240,105.632 z M 180.288,272.192c-13.184,23.488, 5.6,85.888, 32,103.488
	c 26.4,17.568, 50.816,7.488, 64-32c 12.512-37.472, 29.184-103.488-34.816-103.488C 215.072,240.192, 193.248,249.184, 180.288,272.192z M 304,96.448
	c-11.328,0.512-22.048,1.376-32,2.752l0,57.632 c 9.984,1.312, 20.672,2.24, 32,2.688L 304,96.448 z M 436.672,459.296c 6.24,6.24, 16.384,6.24, 22.624,0
	s 6.24-16.384,0-22.624C 453.056,430.4, 430.432,453.024, 436.672,459.296z M 320,320c0,0-1.984-80, 32-96l-32-32L 320,320 z M 368,156.832L 368,99.2 
	c-9.984-1.376-20.672-2.24-32-2.752l0,63.072 C 347.328,159.072, 358.016,158.144, 368,156.832z M 320,32l 64,32C 352,32, 320,32, 320,32z M 400,105.632
	l0,44.672 c 19.744-5.76, 32-13.632, 32-22.304C 432,119.264, 419.744,111.392, 400,105.632z M 459.68,272.192c-12.928-23.040-34.784-32-61.184-32
	c-64,0-47.328,66.016-34.816,103.488c 13.184,39.488, 37.6,49.568, 64,32C 454.080,358.080, 472.864,295.712, 459.68,272.192z M 418.144,415.744
	C 479.744,414.144, 480,352, 480,352C 452.704,406.592, 425.632,414.56, 418.144,415.744z"  />
<glyph unicode="&#xe057;" d="M 448,544L 288,384L 128,352l-64-96l 160,0 l-160-224l 224,160l0-160 l 96,64l 32,160l 160,160L 576,544 L 448,544 z M 432,384C 423.168,384, 416,391.168, 416,400S 423.168,416, 432,416S 448,408.864, 448,400
	S 440.832,384, 432,384z M 480,416c-17.696,0-32,14.336-32,32s 14.304,32, 32,32s 32-14.336, 32-32S 497.696,416, 480,416z"  />
<glyph unicode="&#xe058;" d="M 512,256l0-96 L 128,160 l0,96 c0,100.64, 77.472,183.040, 176,191.2L 304,482.944 c-18.592,6.624-32,24.192-32,45.056C 272,554.496, 293.504,576, 320,576
	c 26.528,0, 48-21.504, 48-48c0-20.864-13.376-38.464-32-45.056l0-35.744 C 434.496,439.040, 512,356.64, 512,256z M 296,272c0,26.496-21.504,48-48,48
	s-48-21.504-48-48S 221.504,224, 248,224S 296,245.504, 296,272z M 448,272C 448,298.528, 426.496,320, 400,320S 352,298.528, 352,272
	s 21.504-48, 48-48S 448,245.504, 448,272z M 448,128l0-64 c0-17.6-14.4-32-32-32L 224,32 c-17.6,0-32,14.4-32,32l0,64 L 448,128 z"  />
<glyph unicode="&#xe059;" d="M 96,288L 320,448L 320,310.016L 544,464L 544,112L 320,265.984L 320,128 z"  />
<glyph unicode="&#xe05a;" d="M 575.744,146.464L 575.744,432 c0,61.888-50.112,111.968-112,111.968c-8.8,0-16-7.168-16-16s 7.2-16, 16-16
	c 44.128,0, 80-35.872, 80-79.968l0-209.472 c-20.32,20.64-48.512,33.44-79.744,33.44c-44.608,0-82.784-26.208-100.768-63.936L 276.8,192.032 
	c-18.016,37.728-56.192,63.936-100.8,63.936c-31.392,0-59.68-12.96-80-33.76L 96,432 c0,44.096, 35.904,79.968, 80,79.968c 8.832,0, 16,7.168, 16,16
	s-7.168,16-16,16C 114.112,543.968, 64,493.856, 64,432l0-288 C 64,82.112, 114.112,32, 176,32S 288,82.112, 288,144C 288,149.472, 287.168,154.72, 286.4,160l 67.232,0 
	C 352.832,154.72, 352,149.472, 352,144c0-61.888, 50.112-112, 112-112s 112,50.112, 112,112C 576,144.832, 575.776,145.6, 575.744,146.464z M 176,64
	C 131.904,64, 96,99.872, 96,144c0,44.096, 35.904,79.968, 80,79.968S 256,188.064, 256,144C 256,99.872, 220.096,64, 176,64z M 464,64
	c-44.128,0-80,35.872-80,80c0,44.096, 35.872,79.968, 80,79.968c 43.296,0, 78.4-34.56, 79.744-77.504L 543.744,144 L 544,144 C 544,99.872, 508.128,64, 464,64z"  />
<glyph unicode="&#xe05b;" d="M 96,64l 448,0 l0-32 L 96,32 L 96,64 z M 512,224l-160,0 L 352,357.888 C 389.216,371.104, 416,406.272, 416,448c0,53.024-42.976,96-96,96C 266.976,544, 224,501.024, 224,448
	c0-41.728, 26.784-76.896, 64-90.112L 288,224 L 128,224 c-35.328,0-64-28.672-64-64l0-64 l 512,0 l0,64 C 576,195.36, 547.328,224, 512,224z"  />
<glyph unicode="&#xe05c;" d="M 128,256L 320,512L 512,256 zM 128,192L 512,192L 512,64L 128,64z"  />
<glyph unicode="&#xe05d;" d="M 544,288l0-128 c0-17.696-14.304-32-32-32L 192,128 l0-64 l-128,96l 128,96l0-64 l 288,0 l0,48 L 544,288z M 160,336L 160,384 l 288,0 l0-64 l 128,96l-128,96l0-64 L 128,448 C 110.304,448, 96,433.696, 96,416l0-128 L 160,336z"  />
<glyph unicode="&#xe05e;" d="M 336,156.448L 336,416.992 C 363.52,424.128, 384,448.928, 384,478.72c0,35.328-28.672,64-64,64s-64-28.672-64-64c0-29.792, 20.48-54.592, 48-61.728l0-260.544 
	C 276.48,149.312, 256,124.512, 256,94.688c0-35.328, 28.672-64, 64-64s 64,28.672, 64,64C 384,124.512, 363.52,149.312, 336,156.448z M 288,478.72c0,17.664, 14.336,32, 32,32
	s 32-14.336, 32-32s-14.336-32-32-32S 288,461.056, 288,478.72z M 320,62.688c-17.664,0-32,14.336-32,32c0,17.696, 14.336,32, 32,32s 32-14.304, 32-32
	C 352,77.056, 337.664,62.688, 320,62.688z"  />
<glyph unicode="&#xe05f;" d="M 500.992,469.024C 454.688,515.328, 390.688,544, 320,544S 185.312,515.328, 139.008,469.024C 92.672,422.688, 64,358.688, 64,288
		c0-70.656, 28.672-134.656, 75.008-181.024C 185.312,60.64, 249.312,32, 320,32c 56.992,0, 109.504,18.88, 152.032,50.368l-41.024,49.248
		C 399.616,109.28, 361.376,96, 320,96c-52.928,0-100.928,21.504-135.68,56.288C 149.536,187.072, 128,235.072, 128,288c0,52.928, 21.536,100.928, 56.32,135.712
		C 219.072,458.464, 267.072,480, 320,480s 100.928-21.536, 135.68-56.288C 490.464,388.928, 512,340.928, 512,288l-128,0 l 134.56-161.472C 554.432,170.592, 576,226.752, 576,288
		C 576,358.688, 547.328,422.688, 500.992,469.024z"  />
<glyph unicode="&#xe060;" d="M 320,544c-141.376,0-256-114.624-256-256c0-141.344, 114.624-256, 256-256s 256,114.624, 256,256C 576,429.376, 461.376,544, 320,544z M 480,288c0-32.64-9.92-62.976-26.72-88.288
	l-77.28,88.32L 448,288.032 C 447.968,358.72, 390.624,416, 320,416c-70.688,0-128-57.312-128-128c0-70.624, 57.312-128, 128-128c 31.776,0, 60.544,12.064, 82.912,31.296l 20.736-24.224
	C 395.648,143.072, 359.744,128, 320,128c-88.352,0-160,71.68-160,160c0,88.384, 71.648,160, 160,160C 408.32,448, 479.968,376.384, 480,288C 480,288, 480,288, 480,288z"  />
<glyph unicode="&#xe061;" d="M 480,416L 160,416 c-70.688,0-128-57.312-128-128c0-70.656, 57.312-128, 128-128s 128,57.312, 128,128c0,23.424-6.752,45.12-17.76,64l 99.52,0 C 358.752,333.12, 352,311.424, 352,288
	c0-70.656, 57.312-128, 128-128s 128,57.312, 128,128C 608,358.688, 550.688,416, 480,416z M 160,224c-35.296,0-64,28.672-64,64s 28.704,64, 64,64s 64-28.704, 64-64S 195.296,224, 160,224z
	 M 480,224c-35.296,0-64,28.672-64,64s 28.704,64, 64,64s 64-28.704, 64-64S 515.296,224, 480,224z"  />
<glyph unicode="&#xe062;" d="M 320,544c-141.408,0-256-114.656-256-256c0-141.376, 114.592-256, 256-256c 141.376,0, 256,114.592, 256,256C 576,429.344, 461.376,544, 320,544z M 200.96,98.528l 117.696,190.56
		L 96.032,289.088 C 96.448,369.92, 139.744,440.448, 204.288,479.52l 114.368-190.464l 117.472,190.176c 64.32-39.136, 107.424-109.504, 107.808-190.208l-225.28,0 l 116.032-193.216
		C 401.088,75.776, 361.984,64, 320,64C 276.192,64, 235.456,76.768, 200.96,98.528zM 318.592,288L 318.592,288.032L 318.56,288 	z"  />
<glyph unicode="&#xe063;" d="M 320,416c-70.688,0-128-57.312-128-128c0-70.656, 57.312-128, 128-128s 128,57.312, 128,128C 448,358.688, 390.688,416, 320,416z M 320,208c-44.128,0-80,35.872-80,80
	c0,44.128, 35.872,80, 80,80s 80-35.872, 80-80C 400,243.904, 364.128,208, 320,208zM 320,544c-141.376,0-256-114.624-256-256s 114.624-256, 256-256s 256,114.592, 256,256S 461.376,544, 320,544z M 320,64c-123.488,0-224,100.448-224,224c0,123.52, 100.512,224, 224,224
	s 224-100.48, 224-224C 544,164.448, 443.488,64, 320,64z"  />
<glyph unicode="&#xe064;" d="M 288,544l0-116.64 c-64.672,0-89.088-19.552-89.088-93.312L 198.912,288 L 256,288 c 17.6,0, 32-14.4, 32-32l0-192 c0-17.632-14.4-32-32-32L 96,32 c-17.6,0-32,14.368-32,32l0,224 
	C 64,466.304, 113.248,544, 288,544z M 576,427.36L 576,544 c-174.752,0-224-77.696-224-256l0-224 c0-17.632, 14.4-32, 32-32l 160,0 c 17.6,0, 32,14.368, 32,32l0,192 c0,17.568-14.4,32-32,32l-57.088,0 
	L 486.912,334.080 C 486.912,407.84, 511.328,427.36, 576,427.36z"  />
<glyph unicode="&#xe065;" d="M 352,32l0,116.64 c 64.672,0, 89.088,19.552, 89.088,93.312l0,46.080 L 384,288.032 c-17.6,0-32,14.4-32,32L 352,512 c0,17.632, 14.4,32, 32,32l 160,0 c 17.6,0, 32-14.368, 32-32l0-224 
	C 576,109.696, 526.752,32, 352,32z M 64,148.64L 64,32 c 174.752,0, 224,77.696, 224,256L 288,512 c0,17.632-14.4,32-32,32L 96,544 C 78.4,544, 64,529.632, 64,512l0-192 c0-17.568, 14.4-32, 32-32
	l 57.088,0 l0-46.080 C 153.088,168.192, 128.672,148.64, 64,148.64z"  />
<glyph unicode="&#xe066;" d="M 446.176,149.12c 35.36,35.648, 57.312,84.768, 57.312,138.912c0,54.144-21.952,103.232-57.312,138.912c-0.384,0.384-0.736,0.736-1.12,1.12
	L 400,383.008c 0.384-0.352, 0.8-0.736, 1.12-1.12C 425.056,357.76, 439.808,324.576, 439.808,288c0-36.576-14.752-69.76-38.688-93.952
	c-0.32-0.384-0.736-0.704-1.12-1.088l 45.056-44.992C 445.44,148.352, 445.824,148.704, 446.176,149.12zM 529.376,59.136C 587.808,117.888, 624,198.784, 624,288s-36.192,170.144-94.624,228.896c-0.384,0.384-0.736,0.736-1.12,1.12
	l-44.992-44.992c 0.384-0.384, 0.736-0.736, 1.12-1.152c 46.944-47.2, 76-112.192, 76-183.872s-29.056-136.672-76-183.872
	c-0.384-0.416-0.736-0.736-1.12-1.152l 44.992-44.96C 528.64,58.4, 528.992,58.752, 529.376,59.136zM 272,287.648A48,48 180 1 1 368,287.648A48,48 180 1 1 272,287.648zM 193.824,426.912C 158.432,391.264, 136.512,342.144, 136.512,288s 21.952-103.264, 57.312-138.912c 0.384-0.416, 0.736-0.736, 1.12-1.12L 240,193.024
	c-0.384,0.352-0.8,0.736-1.12,1.12C 214.944,218.272, 200.192,251.456, 200.192,288s 14.752,69.76, 38.688,93.952
	C 239.2,382.336, 239.616,382.656, 240,383.040L 194.944,428.032C 194.56,427.68, 194.176,427.328, 193.824,426.912zM 110.624,516.896C 52.192,458.144, 16,377.248, 16,288s 36.192-170.112, 94.624-228.864c 0.384-0.416, 0.736-0.736, 1.12-1.12l 44.992,44.96
	c-0.384,0.416-0.736,0.736-1.12,1.152C 108.672,151.328, 79.616,216.32, 79.616,288s 29.056,136.672, 76,183.872
	C 156,472.288, 156.384,472.64, 156.736,473.056L 111.744,518.016C 111.36,517.632, 111.008,517.28, 110.624,516.896z"  />
<glyph unicode="&#xe067;" d="M 320,544c-141.376,0-256-114.624-256-256s 114.624-256, 256-256c 141.376,0, 256,114.592, 256,256S 461.376,544, 320,544z M 528,288c0-45.12-14.56-86.784-39.072-120.928
	L 199.104,456.928C 233.216,481.408, 274.88,496, 320,496C 434.688,496, 528,402.688, 528,288z M 112,288c0,45.12, 14.592,86.816, 39.104,120.928l 289.856-289.856
	C 406.816,94.592, 365.12,80, 320,80C 205.312,80, 112,173.312, 112,288z"  />
<glyph unicode="&#xe068;" d="M 320,544c-141.376,0-256-114.624-256-256c0-141.344, 114.624-256, 256-256s 256,114.624, 256,256S 461.376,544, 320,544z M 192,240c-26.496,0-48,21.504-48,48
	S 165.504,336, 192,336S 240,314.496, 240,288S 218.496,240, 192,240z M 320,240c-26.496,0-48,21.504-48,48S 293.504,336, 320,336s 48-21.504, 48-48
	S 346.496,240, 320,240z M 448,240c-26.496,0-48,21.504-48,48s 21.504,48, 48,48s 48-21.504, 48-48S 474.496,240, 448,240z"  />
<glyph unicode="&#xe069;" d="M 448.032,544L 448.032,416L 320.032,416L 320.032,288L 192.032,288L 192.032,160L 64.032,160L 64.032,32L 576.032,32L 576.032,544 z"  />
<glyph unicode="&#xe06a;" d="M 112,96L 64,96 l-32,191.84L 112,440l 32,0 L 128,392l 384,0 l-16,48l 32,0 l 80-152.16L 576,96l-48,0 L 512,127.84l 32,0 l 24,128L 72,255.84 l 24-128l 32,0 L 112,96z M 192,576
	L 160,416l 320,0 l-32,160L 192,576 z M 168,192L 112,32l 416,0 l-56,160L 168,192 z M 464,64l-288,0 l 8,32l 272,0 L 464,64z M 448,128L 192,128 l 8,32l 240,0 L 448,128z"  />
<glyph unicode="&#xe06b;" d="M 500.992,469.92l-0.064-0.064c-12.512,12.512-32.704,12.512-45.248,0c-12.512-12.512-12.512-32.736,0-45.248
			C 490.464,389.856, 512,341.856, 512,288.928s-21.536-100.928-56.32-135.68c-34.752-34.784-82.752-56.32-135.68-56.32s-100.928,21.536-135.68,56.32
			C 149.536,188, 128,236, 128,288.928s 21.536,100.928, 56.32,135.68c 12.544,12.512, 12.512,32.736,0,45.248s-32.704,12.512-45.248,0L 139.008,469.92
			C 92.672,423.616, 64,359.616, 64,288.928s 28.672-134.688, 75.008-180.992c 46.304-46.336, 110.304-75.008, 180.992-75.008s 134.688,28.672, 180.992,75.008
			C 547.328,154.24, 576,218.24, 576,288.928S 547.328,423.616, 500.992,469.92zM 288,544.928L 352,544.928L 352,256.928L 288,256.928z"  />
<glyph unicode="&#xe06c;" d="M 576,544L 352,32L 288,256L 64,320 z"  />
<glyph unicode="&#xe06d;" d="M 543.968,32L 320,544.032L 96,32L 320,160 z"  />
<glyph unicode="&#xe06e;" d="M 224,416L 256,416L 256,288L 224,288zM 384,416L 416,416L 416,288L 384,288zM 320.032,256C 293.472,256, 272,234.56, 272,208L 272,160 l 96,0 l0,48 C 368,234.56, 346.496,256, 320.032,256zM 416,512L 224,512 c-32,0-160-64-160-224s 128-224, 160-224l 192,0 c 32,0, 160,64, 160,224S 448,512, 416,512z M 416,96.064L 416,96 L 224,96 l0,0.064 C 200.896,97.824, 96,152.512, 96,288
		C 96,423.456, 200.832,478.176, 224,480L 224,480 l 192,0 L 416,480 c 23.168-1.824, 128-56.544, 128-191.968C 544,152.512, 439.104,97.824, 416,96.064z"  />
<glyph unicode="&#xe06f;" d="M 544,512c0,17.664-14.304,32-32,32s-32-14.336-32-32c0-0.704, 0.384-1.312, 0.416-1.984L 480,510.016 L 480,208 c0-61.76-50.24-112-112-112S 256,146.272, 256,208
	l0,48 l 96,0 l0,160 L 288,416 l0,128 L 256,544 l0-128 L 192,416 l0,128 L 160,544 l0-128 L 96,416 l0-160 l 96,0 l0-48 c0-97.024, 78.944-176, 176-176c 97.024,0, 176,78.976, 176,176L 544,510.016 l-0.416,0 
	C 543.616,510.72, 544,511.328, 544,512z"  />
<glyph unicode="&#xe070;" d="M 320,544c-141.376,0-256-114.624-256-256s 114.624-256, 256-256c 141.376,0, 256,114.592, 256,256S 461.376,544, 320,544z M 320,80c-114.688,0-208,93.28-208,208
		S 205.312,496, 320,496c 114.688,0, 208-93.312, 208-208S 434.688,80, 320,80z M 256,384l 160-96l-160-96L 256,384 z"  />
<glyph unicode="&#xe071;" d="M 160,480L 544,288L 160,96 z"  />
<glyph unicode="&#xe072;" d="M 400,342.528L 400,514.272 C 427.552,521.408, 448,546.24, 448,576L 192,576 c0-29.76, 20.448-54.592, 48-61.728l0-171.776 C 193.12,323.52, 160,277.696, 160,224l 128,0 l 32-224l 32,224l 128,0 
	C 480,277.696, 446.88,323.52, 400,342.528z M 336,514.272l 32,0 l0-171.776 l-32,0 L 336,514.272 z"  />
<glyph unicode="&#xe073;" d="M 448,576L 192,576 C 174.4,576, 160,561.6, 160,544l0-512 c0-17.6, 14.4-32, 32-32l 256,0 c 17.6,0, 32,14.4, 32,32L 480,544 C 480,561.6, 465.6,576, 448,576z M 336,40
	c0-4.416-3.584-8-8-8l-16,0 c-4.416,0-8,3.584-8,8l0,16 C 304,60.416, 307.584,64, 312,64l 16,0 
	c 4.416,0, 8-3.584, 8-8L 336,40 z M 448,96L 192,96 L 192,544 l 256,0 L 448,96 z"  />
<glyph unicode="&#xe074;" d="M 64,288A256,256 180 1 1 576,288A256,256 180 1 1 64,288z"  />
<glyph unicode="&#xe075;" d="M 576,288c0-141.376-114.624-256-256-256c-141.376,0-256,114.624-256,256c0,141.376, 114.624,256, 256,256C 461.376,544.032, 576,429.408, 576,288z M 368,496
		C 270.816,496, 192,402.88, 192,288c0-114.848, 78.816-208, 176-208c 97.152,0, 176,93.152, 176,208C 544,402.88, 465.152,496, 368,496z"  />
<glyph unicode="&#xe076;" d="M 97.76,161.312C 141.856,84.128, 224.768,32, 320,32c 141.376,0, 256,114.624, 256,256c0,141.376-114.624,256-256,256c-95.328,0-178.304-52.224-222.368-129.504
		C 97.28,413.92, 96.864,413.344, 96.544,412.736C 94.944,409.92, 93.504,406.976, 92,404.032c-2.464-4.736-4.8-9.568-7.008-14.56
		C 84.352,388, 83.744,386.496, 83.136,384.992C 80.64,378.912, 78.368,372.704, 76.32,366.368C 75.872,364.96, 75.392,363.52, 75.008,362.112
		C 73.088,355.872, 71.488,349.504, 70.080,343.040C 69.696,341.28, 69.28,339.52, 68.896,337.76C 67.68,331.52, 66.784,325.184, 65.984,318.72
		C 65.792,316.8, 65.44,314.912, 65.248,312.96C 64.48,304.768, 64,296.448, 64,288s 0.48-16.736, 1.248-24.96c 0.192-1.952, 0.544-3.84, 0.736-5.76
		c 0.768-6.464, 1.696-12.8, 2.944-19.040c 0.352-1.76, 0.736-3.456, 1.12-5.216c 1.408-6.496, 3.040-12.864, 4.928-19.168
		c 0.416-1.408, 0.864-2.784, 1.312-4.192c 2.016-6.368, 4.352-12.64, 6.848-18.72c 0.64-1.472, 1.184-2.944, 1.824-4.384
		c 2.208-5.056, 4.608-9.984, 7.136-14.784c 1.44-2.848, 2.848-5.696, 4.416-8.48C 96.896,162.656, 97.344,161.984, 97.76,161.312z M 320,64
		c-11.744,0-23.2,1.184-34.464,2.944C 377.504,83.552, 448,176.064, 448,288s-70.496,204.48-162.464,221.088C 296.8,510.848, 308.256,512, 320,512
		c 123.68,0, 224-100.288, 224-224C 544,164.32, 443.68,64, 320,64z"  />
<glyph unicode="&#xe077;" d="M 320,512.032c 123.488,0, 224-100.512, 224-224c0-123.488-100.512-224-224-224c-123.52,0-224,100.512-224,224C 96,411.52, 196.48,512.032, 320,512.032 M 320,544.032
		c-141.376,0-256-114.624-256-256c0-141.376, 114.624-256, 256-256c 141.376,0, 256,114.624, 256,256C 576,429.408, 461.376,544.032, 320,544.032L 320,544.032z"  />
<glyph unicode="&#xe078;" d="M 320,544c-141.376,0-256-114.624-256-256s 114.624-256, 256-256c 141.376,0, 256,114.592, 256,256S 461.376,544, 320,544z M 320,80c-114.688,0-208,93.28-208,208
	S 205.312,496, 320,496c 114.688,0, 208-93.312, 208-208S 434.688,80, 320,80z M 480,288l-128,32l-32,136l0,0 L 288,320l0-64L 352,256L 480,288L 480,288z"  />
<glyph unicode="&#xe079;" d="M 320,544c-141.376,0-256-114.624-256-256c0-141.344, 114.624-256, 256-256s 256,114.56, 256,256C 576,429.408, 461.376,544, 320,544z M 544,288
	c0-43.744-12.768-84.416-34.528-118.944L 336,288.032L 336,511.2 C 452.032,502.912, 544,406.112, 544,288z M 304,511.2l0-223.168 l-173.472-118.976
	C 108.768,203.584, 96,244.256, 96,288C 96,406.112, 188,502.912, 304,511.2z M 149.376,143.2L 304,249.216l0-184.384 
	C 242.208,69.248, 187.264,98.656, 149.376,143.2z M 336,64.832l0,184.384 l 154.592-105.984C 452.704,98.656, 397.824,69.248, 336,64.832z"  />
<glyph unicode="&#xe07a;" d="M 576,496L 64,496 c-17.6,0-32-14.4-32-32L 32,416 l0-64 l0-240 c0-17.6, 14.4-32, 32-32l 512,0 c 17.6,0, 32,14.4, 32,32L 608,352 L 608,416 L 608,464 C 608,481.6, 593.6,496, 576,496z M 576,112
		L 64,112 L 64,352 l 512,0 L 576,112 z M 64,416L 64,464 l 512,0 L 576,416 L 64,416 zM 480,240L 480,192L 544,256L 480,320L 480,272L 416,272L 416,240 	z"  />
<glyph unicode="&#xe07b;" d="M 384,480L 512,480L 512,96L 384,96zM 128,480L 256,480L 256,96L 128,96z"  />
<glyph unicode="&#xe07c;" d="M 320,544c-141.376,0-256-114.624-256-256c0-141.344, 114.624-256, 256-256s 256,114.624, 256,256C 576,429.376, 461.376,544, 320,544z M 288,192L 224,192 L 224,384 l 64,0 L 288,192 z M 416,192l-64,0 L 352,384 l 64,0 L 416,192 z"  />
<glyph unicode="&#xe07d;" d="M 160,32L 64,96l 96,64l 96-64L 160,32z M 256,288L 160,352l-96-64l 96-63.968L 256,288z M 256,480L 160,544L 64,480L 160,416L 256,480z M 416,192L 320,256L 224,192l 96-64L 416,192
		z M 416,384l-96,64L 224,384L 320,320L 416,384z M 576,96l-96,64l-96-64L 480,32L 576,96z M 576,288l-96,64l-96-64l 96-63.968L 576,288z M 576,480L 480,544L 384,480L 480,416L 576,480z"  />
<glyph unicode="&#xe07e;" d="M 224,576L 96,448l0-448 l 448,0 L 544,576 L 224,576 z M 512,32L 128,32 L 128,432 l 112,0 L 240,544 L 512,544 L 512,32 z"  />
<glyph unicode="&#xe07f;" d="M 575.936,192L 512,192L 512,256L 448,256L 448,192L 384,192L 384,128L 448,128L 448,64L 512,64L 512,128L 575.936,128 zM 96,432L 208,432L 208,544L 480,544L 480,288L 512,288L 512,576L 192,576L 64,448L 64,0L 512,0L 512,32L 96,32 z"  />
<glyph unicode="&#xe080;" d="M 192,448l0-416l 352,0 L 544,448 L 192,448z M 512,64L 224,64 L 224,416L 512,416L 512,64 z M 160,128L 96,128 L 96,544L 448,544l0-64 l-32,0 L 416,512 L 128,512l0-352L 160,160 L 160,128 z"  />
</font>
</defs>
</svg>
